<?xml version="1.0" encoding="UTF-8" standalone="no"?>
<!-- Created with Inkscape (http://www.inkscape.org/) -->

<svg
   width="209.23465mm"
   height="234.5443mm"
   viewBox="0 0 209.23465 234.5443"
   version="1.1"
   id="svg5"
   xml:space="preserve"
   inkscape:export-filename="bitmap.png"
   inkscape:export-xdpi="96"
   inkscape:export-ydpi="96"
   inkscape:version="1.2.2 (732a01da63, 2022-12-09)"
   sodipodi:docname="disegno-transparent.svg"
   xmlns:inkscape="http://www.inkscape.org/namespaces/inkscape"
   xmlns:sodipodi="http://sodipodi.sourceforge.net/DTD/sodipodi-0.dtd"
   xmlns="http://www.w3.org/2000/svg"
   xmlns:svg="http://www.w3.org/2000/svg"><sodipodi:namedview
     id="namedview7"
     pagecolor="#ffffff"
     bordercolor="#666666"
     borderopacity="1.0"
     inkscape:showpageshadow="2"
     inkscape:pageopacity="0.0"
     inkscape:pagecheckerboard="0"
     inkscape:deskcolor="#d1d1d1"
     inkscape:document-units="mm"
     showgrid="false"
     inkscape:zoom="0.71624579"
     inkscape:cx="328.79774"
     inkscape:cy="365.09813"
     inkscape:window-width="1920"
     inkscape:window-height="991"
     inkscape:window-x="-9"
     inkscape:window-y="-9"
     inkscape:window-maximized="1"
     inkscape:current-layer="layer1" /><defs
     id="defs2" /><g
     inkscape:label="Livello 1"
     inkscape:groupmode="layer"
     id="layer1"
     style="display:inline"
     transform="translate(-0.77611675,-15.921641)"><path
       style="fill:#9a0013;stroke-width:0.744238;fill-opacity:0.05"
       d="m 117.72208,249.90744 c -0.34185,-0.43615 -4.98564,-0.69746 -12.3945,-0.69746 -11.715724,0 -11.87407,-0.0198 -14.198517,-1.77583 l -2.350699,-1.77582 -2.350677,1.77582 -2.350676,1.77583 H 61.881262 39.685521 l -4.12758,-3.30437 -4.127557,-3.30437 H 16.103238 c -13.0653703,0 -15.32712125,-0.14631 -15.32712125,-0.99132 0,-0.8657 4.54248425,-0.99129 35.85369825,-0.99129 h 35.853697 l 5.399338,-4.29569 5.39935,-4.29569 H 73.633026 63.98386 l -3.701463,-2.97392 c -2.035815,-1.63566 -4.188686,-2.97393 -4.784147,-2.97393 -0.596103,0 -1.082683,-0.7425 -1.082683,-1.65218 0,-1.32175 0.419061,-1.65218 2.095305,-1.65218 1.489034,0 2.095281,0.35808 2.095281,1.23757 0,0.68067 1.688764,2.46503 3.752804,3.96525 l 3.752804,2.72766 h 9.464102 9.464093 l 7.928994,-6.2783 7.92902,-6.2783 h 18.49014 18.49015 l 3.70145,-2.97393 3.7015,-2.97394 h 21.02982 c 14.81133,0 21.31676,-0.22621 22.00008,-0.76503 0.73487,-0.57946 1.29248,-0.55414 2.29885,0.1044 0.73077,0.4782 1.21818,1.31358 1.08317,1.85638 -0.21145,0.85045 -3.37496,0.96708 -22.87462,0.84346 l -22.62915,-0.1435 -2.50441,2.06123 -2.50441,2.06124 34.1346,-0.20042 c 28.96483,-0.1701 34.20403,-0.0576 34.59316,0.743 0.25221,0.51888 -0.11827,1.3983 -0.82339,1.95429 -1.00132,0.78956 -1.5035,0.83622 -2.29373,0.21312 -0.76848,-0.60598 -13.51698,-0.79779 -53.02611,-0.79779 H 101.7507 L 87.521205,231.36629 73.2917,242.60113 H 54.050887 34.810074 l 2.843172,2.31306 2.843172,2.31306 h 21.426918 21.42693 l 13.390209,-10.57397 13.390235,-10.57399 h 18.90934 c 11.8889,0 19.23072,-0.25339 19.77494,-0.68253 1.25753,-0.99158 3.66023,-0.0496 3.66023,1.43486 0,1.53135 -2.25293,2.36165 -3.57641,1.31805 -0.62278,-0.49108 -5.27682,-0.74862 -13.52803,-0.74862 h -12.57863 l 3.70147,2.97393 3.70148,2.97393 h 31.73614 31.73615 l 4.83273,3.6348 c 2.65801,1.99914 5.27007,3.63481 5.8046,3.63481 0.53453,0 0.97186,0.74348 0.97186,1.65218 0,1.32175 -0.41906,1.65217 -2.09528,1.65217 -1.45357,0 -2.09531,-0.36182 -2.09531,-1.18137 0,-0.64974 -1.80441,-2.58281 -4.00984,-4.29566 l -4.00983,-3.11432 h -31.84588 -31.84588 l -4.97623,-3.96523 c -4.63742,-3.69528 -5.23694,-3.96524 -8.8055,-3.96524 -3.48634,0 -4.19912,0.29608 -7.95945,3.30646 l -4.13022,3.30647 4.99982,3.99588 4.99984,3.99588 28.70604,-0.19796 c 28.23097,-0.19468 28.70605,-0.17609 28.70615,1.12379 6e-5,1.28879 -0.46496,1.31621 -18.64866,1.10011 l -18.64875,-0.22163 2.03188,1.7086 c 1.98823,1.67191 2.2716,1.7086 13.20033,1.7086 7.37107,0 11.16846,-0.24034 11.16846,-0.70683 0,-0.38876 0.84861,-0.61181 1.88578,-0.49565 2.344,0.26249 3.04857,2.81865 0.95179,3.45309 -0.79288,0.23992 -1.83114,0.12908 -2.30721,-0.24633 -0.51355,-0.40494 -5.67317,-0.68254 -12.68626,-0.68254 h -11.82065 l -2.84318,-2.31305 -2.84315,-2.31307 h -8.86958 -8.86953 l -5.40092,-4.29692 -5.4009,-4.29692 -5.66845,4.43544 -5.668453,4.43544 2.240631,1.8441 c 2.229107,1.83466 2.29696,1.84411 13.230752,1.84411 7.06811,0 11.32897,-0.26715 11.93956,-0.74862 1.47825,-1.16564 3.7333,-0.13545 3.42569,1.56501 -0.28479,1.57413 -2.67404,2.37417 -3.59211,1.20283 z M 11.88115,248.71603 C 2.7841361,248.54781 0.77611675,248.33495 0.77611675,247.5386 c 0,-0.80001 1.74347815,-0.97341 9.84787425,-0.9794 5.416314,-0.003 11.262189,-0.19161 12.990795,-0.41689 2.967044,-0.38672 3.142946,-0.31234 3.142946,1.329 0,1.40523 -0.361639,1.71098 -1.885762,1.59435 -1.037164,-0.0795 -6.883041,-0.2367 -12.99082,-0.34963 z M 0.77611675,226.40983 c 0,-0.54521 0.46049425,-0.99129 1.02333645,-0.99129 0.5628423,0 3.1086158,-1.61101 5.6572878,-3.58 l 4.633951,-3.58 7.949877,-0.22001 c 7.236101,-0.20028 7.977197,-0.10848 8.254091,1.0225 0.385231,1.5734 -1.418948,2.48855 -3.322434,1.68528 -0.801226,-0.33812 -3.856506,-0.61477 -6.789529,-0.61477 -5.117229,0 -5.465088,0.10672 -8.6063708,2.6435 l -3.2735888,2.6435 H 19.763126 33.223539 l 8.710263,-6.96879 c 4.790633,-3.83284 8.832188,-7.40156 8.981244,-7.93049 0.330943,-1.17454 4.008863,-1.28428 4.544575,-0.13562 0.52022,1.11544 -0.146586,2.47828 -1.212782,2.47828 -0.476933,0 -2.155815,0.89217 -3.730827,1.98261 l -2.863698,1.98264 h 16.742032 c 10.905763,0 16.933764,0.24458 17.291983,0.70162 0.302458,0.3859 1.456177,0.97333 2.563804,1.3054 2.323949,0.69672 2.710225,2.92785 0.616559,3.56136 -1.563586,0.47311 -2.528787,-0.1051 -3.962013,-2.37361 -0.966058,-1.52907 -1.120648,-1.54417 -17.630744,-1.72213 l -16.656148,-0.17946 -6.069173,4.64042 -6.069174,4.64042 H 17.627766 c -14.4205063,0 -16.85164925,-0.14294 -16.85164925,-0.99132 z M 123.56021,214.84456 c -0.30467,-0.38873 -5.26196,-0.66088 -12.03773,-0.66088 h -11.51977 l -2.843175,-2.31307 -2.843171,-2.31305 H 85.44854 76.580716 l -5.821866,-4.6261 -5.821856,-4.62613 h -5.908953 -5.908952 l -6.66561,5.28699 -6.665609,5.287 H 21.287725 c -13.6671275,0 -18.7814107,0.21581 -19.5768401,0.82609 -0.87028993,0.66769 -1.02293276,0.50932 -0.79621361,-0.82609 l 0.28050651,-1.6522 18.8937852,-0.17721 18.893784,-0.17722 6.22873,-4.9445 6.22873,-4.94447 h 51.607063 c 37.32007,0 51.86992,-0.20727 52.55646,-0.74863 1.3583,-1.07105 3.57646,-0.19685 3.57646,1.40948 0,1.60635 -2.21816,2.48055 -3.57646,1.40951 -0.68253,-0.53821 -13.08495,-0.74863 -44.12568,-0.74863 H 68.301764 l 4.58102,3.66259 4.581004,3.66259 28.495982,-0.0959 c 26.41913,-0.0888 28.51724,-0.0132 28.78794,1.04958 0.37932,1.48786 -1.47713,2.37196 -3.33467,1.58809 -0.8012,-0.33812 -8.71319,-0.61477 -17.58215,-0.61477 H 97.705462 l 1.968416,1.65218 c 1.905762,1.5996 2.318702,1.65219 12.969292,1.65219 7.47489,0 11.32513,-0.25569 12.01258,-0.79776 0.79022,-0.62311 1.31075,-0.562 2.37752,0.27919 0.75119,0.59233 1.13749,1.5461 0.85843,2.11951 -0.56246,1.1558 -3.52045,1.41645 -4.33149,0.38168 z M 0.77611675,203.94014 c 0,-0.7838 1.19082785,-0.99131 5.68879035,-0.99131 h 5.6887899 l 4.127582,-3.30437 c 3.866198,-3.09513 4.39426,-3.30437 8.3395,-3.30437 h 4.211945 l 12.162842,-9.52633 12.162842,-9.52635 8.381171,-0.22154 c 7.91607,-0.20925 8.381149,-0.14817 8.381149,1.10021 0,1.24454 -0.465032,1.3088 -7.962111,1.10009 l -7.962087,-0.22165 -2.888312,2.36949 -2.888287,2.3695 h 19.271008 19.271019 l 2.983579,-2.47828 c 1.640987,-1.36305 3.22498,-3.02069 3.520026,-3.68365 0.720285,-1.61851 3.405896,-1.14393 3.733299,0.65971 0.168205,0.92664 -0.288394,1.56029 -1.308309,1.81554 -0.861666,0.21566 -2.84645,1.43323 -4.410606,2.70576 l -2.843908,2.31366 4.120716,3.29885 4.120714,3.29889 h 7.172981 7.17297 l 7.50808,-5.94786 7.50811,-5.94786 h 32.30918 32.30919 l 5.09809,-4.13047 c 2.80395,-2.27173 5.327,-4.65089 5.60678,-5.28698 0.27976,-0.6361 1.2748,-1.15653 2.21122,-1.15653 1.25726,0 1.70251,0.43207 1.70251,1.65218 0,0.9087 -0.41382,1.65218 -0.91962,1.65218 -0.50577,0 -3.45888,1.93306 -6.56249,4.29569 l -5.64289,4.29567 h -32.22006 -32.22004 l -6.66561,5.28699 -6.66561,5.28699 h 25.60632 25.60633 l 2.03185,1.72229 c 1.11754,0.94727 2.9066,1.98862 3.97575,2.31412 1.37716,0.41929 1.86585,1.02305 1.67622,2.07098 -0.33422,1.84718 -3.0103,2.35832 -3.74552,0.71541 -0.29663,-0.66296 -1.49753,-2.02321 -2.66859,-3.02279 l -2.12924,-1.8174 H 130.29163 95.849896 l -4.976228,-3.96523 -4.976227,-3.96524 H 72.50076 59.104089 l 3.313027,2.70298 3.313026,2.70297 10.665147,-0.24852 c 8.794055,-0.2049 10.747718,-0.0789 11.135846,0.71873 0.258888,0.53198 -0.106199,1.42213 -0.811276,1.97811 -1.001313,0.78954 -1.503478,0.83622 -2.293705,0.2131 -0.668517,-0.52714 -4.163075,-0.79776 -10.301559,-0.79776 h -9.289831 l -4.552367,-3.63481 c -4.522029,-3.61057 -4.586246,-3.6348 -9.628211,-3.6348 h -5.075843 l -6.881662,5.45221 -6.88166,5.45219 5.064415,-0.2259 c 4.492902,-0.20042 5.153483,-0.41068 5.853858,-1.86323 0.572013,-1.18633 1.306172,-1.57919 2.665323,-1.42628 2.68257,0.3018 2.919505,2.37469 0.359144,3.14228 -1.141175,0.34212 -2.322334,0.93777 -2.624816,1.32368 -0.340827,0.43484 -4.563652,0.70164 -11.10546,0.70164 H 21.471942 l -4.430942,3.30437 -4.430918,3.30437 H 6.6930992 c -4.7008052,0 -5.91698245,-0.20376 -5.91698245,-0.99132 z M 12.719272,192.54159 c -9.8418634,-0.16729 -11.94315525,-0.37424 -11.94315525,-1.1762 0,-0.80731 1.86621005,-0.97316 10.95060825,-0.97316 6.518075,0 11.664763,-0.30137 12.714922,-0.74454 1.438216,-0.60693 1.967608,-0.52535 2.864126,0.44143 0.811466,0.87507 0.856891,1.41676 0.173193,2.0663 -0.509602,0.48417 -1.351809,0.81481 -1.871579,0.73475 -0.519746,-0.08 -6.319437,-0.23693 -12.888186,-0.34858 z m 8.943705,-11.2235 -12.2187195,-0.21212 -2.8222412,-2.29603 c -1.5522527,-1.26283 -3.5025887,-2.29604 -4.3340822,-2.29604 -0.8314936,0 -1.51181735,-0.42755 -1.51181735,-0.95007 0,-0.79625 3.49446365,-0.9835 21.58148725,-1.15653 12.326342,-0.11802 21.817827,0.0513 22.132568,0.39449 1.668713,1.81982 -0.576646,2.03743 -18.775305,1.81954 l -18.6262507,-0.223 1.6505145,1.43811 c 1.5849912,1.381 2.1834692,1.42986 15.0727972,1.23061 12.89643,-0.19934 13.422256,-0.15642 13.422256,1.09797 0,1.50725 0.917164,1.43934 -15.571207,1.15307 z m 89.180363,-5.29985 c -0.28138,-0.63608 -2.04525,-2.42044 -3.91972,-3.96525 l -3.40816,-2.8087 H 71.596972 39.67849 l -3.701488,-2.97393 -3.701463,-2.97393 H 16.525816 c -13.4410033,0 -15.74969925,-0.14536 -15.74969925,-0.99131 0,-0.86557 4.50097965,-0.99132 35.48027525,-0.99132 h 35.480275 l 5.447755,-4.29566 5.44777,-4.29569 h -8.909529 -8.909494 l -3.313027,-2.70571 c -1.822187,-1.48814 -4.187783,-2.97557 -5.256924,-3.30542 -1.375163,-0.42427 -1.865569,-1.03247 -1.67622,-2.07888 0.334223,-1.84711 3.01147,-2.35902 3.741472,-0.71542 0.294429,0.66297 2.069005,2.4693 3.943483,4.0141 l 3.408151,2.80872 h 9.690846 9.690835 l 7.508103,-5.94786 7.508102,-5.94786 h 18.84877 18.84874 l 4.21693,-3.26648 4.21693,-3.26647 22.62915,-0.13881 c 21.32237,-0.13077 22.62915,-0.0699 22.62915,1.05433 0,1.12384 -1.29001,1.18485 -22.21009,1.05063 l -22.21008,-0.14257 -2.8883,2.35465 -2.88828,2.35466 h 32.26427 c 20.47232,0 32.57174,-0.24245 33.10554,-0.66335 1.16868,-0.92156 3.91445,0.74356 3.30214,2.00253 -0.41176,0.84665 -7.49934,0.94922 -54.25351,0.78524 L 101.88947,140.77986 87.527048,152.0381 73.16462,163.29638 H 54.406397 35.648196 l 2.843172,2.31305 2.843172,2.31306 h 20.569981 20.570015 l 13.837897,-10.86913 13.837927,-10.86916 20.9529,-0.14274 c 20.02432,-0.13638 20.95291,-0.0876 20.95291,1.10166 0,1.17759 -0.76509,1.23381 -14.24798,1.04678 l -14.24798,-0.19763 3.73651,3.02596 3.7365,3.02595 h 31.49943 31.49942 l 3.73651,3.03474 c 2.05505,1.66914 4.61123,3.30527 5.68035,3.63588 1.37483,0.42516 1.86554,1.03413 1.67625,2.08028 -0.33423,1.84707 -3.01174,2.35917 -3.74057,0.71538 -0.29394,-0.66295 -2.25867,-2.61797 -4.36606,-4.34452 l -3.83163,-3.13915 H 161.6998 130.21268 l -4.97622,-3.96524 c -4.895,-3.9005 -5.05233,-3.96523 -9.63632,-3.96523 -4.60608,0 -4.72057,0.0481 -9.87495,4.14889 l -5.21485,4.14891 5.2616,4.11203 5.26163,4.11201 h 25.7609 c 18.06147,0 26.22533,-0.2287 27.31475,-0.76518 2.01569,-0.99262 4.29023,-0.28506 4.29023,1.33459 0,1.48455 -2.40272,2.42646 -3.66025,1.43487 -0.53758,-0.4239 -7.20908,-0.68253 -17.60637,-0.68253 h -16.74082 l 1.96843,1.65218 c 1.9022,1.5966 2.33177,1.65219 12.77295,1.65219 5.94247,0 11.46006,-0.27665 12.26126,-0.61478 1.88303,-0.79463 3.70891,0.10603 3.33324,1.6442 -0.27117,1.11027 -1.31149,1.18864 -13.70185,1.03217 l -13.40844,-0.16935 -3.38418,-2.5983 -3.38418,-2.59833 h -8.74597 -8.74594 l -5.26954,-4.11822 -5.269543,-4.11823 -6.479872,5.10955 -6.479897,5.10951 h 9.544679 9.544653 l 4.03205,2.97393 c 2.21766,1.63565 4.42539,2.97393 4.9061,2.97393 0.48071,0 0.87402,0.74348 0.87402,1.65217 0,1.22014 -0.44524,1.6522 -1.70252,1.6522 -0.93641,0 -1.93276,-0.52043 -2.21412,-1.15653 z M 30.468223,152.90072 18.673577,152.68759 15.42156,150.06152 c -3.159979,-2.55174 -3.413188,-2.62605 -8.9487178,-2.62605 -4.5050185,0 -5.69672545,-0.20739 -5.69672545,-0.99132 0,-0.54521 0.67419425,-0.99129 1.49820415,-0.99129 0.82401,0 3.355624,-1.48697 5.6257851,-3.30437 l 4.127557,-3.30437 h 5.743908 c 3.159125,0 6.399429,-0.27666 7.200655,-0.61476 1.903486,-0.80329 3.707665,0.11185 3.322434,1.68526 -0.275683,1.12605 -1.01034,1.22216 -7.835031,1.02517 l -7.530839,-0.21736 -2.888287,2.3652 -2.8882874,2.36523 H 20.531948 33.911655 l 8.462591,-6.77397 c 4.654406,-3.72567 8.700902,-7.31636 8.992241,-7.97932 0.722684,-1.64461 3.401596,-1.13159 3.735795,0.7154 0.189823,1.049 -0.297637,1.64959 -1.676244,2.06524 -1.069119,0.32235 -2.662329,1.21501 -3.540483,1.98369 l -1.596584,1.39758 h 15.712375 c 14.443324,0 15.884534,0.10673 17.843398,1.32176 1.172036,0.72697 2.672069,1.32175 3.333411,1.32175 2.007687,0 0.943059,2.94289 -1.149632,3.17793 -1.302204,0.14631 -2.135669,-0.32145 -2.944047,-1.65217 l -1.127609,-1.85619 -17.178731,-0.17817 -17.178719,-0.17815 -5.415579,4.3086 -5.415577,4.30861 h -9.834 -9.833975 l 2.172303,1.71291 2.172304,1.71291 13.085231,-0.2131 c 12.574611,-0.20477 13.085233,-0.16205 13.085233,1.09581 0,1.5096 0.838645,1.44555 -15.147134,1.15672 z m 81.711387,-17.84375 -12.21874,-0.21214 -2.822241,-2.29604 -2.822265,-2.29603 H 85.44854 76.580716 l -5.821866,-4.62613 -5.821856,-4.6261 h -6.32932 -6.329345 l -6.24391,4.95654 -6.243936,4.95655 H 21.289032 c -13.2725136,0 -18.7856875,0.22415 -19.5071832,0.79306 -0.78224394,0.61682 -1.00573205,0.48566 -1.00573205,-0.59018 0,-0.76077 0.59657805,-1.56374 1.32572375,-1.78436 0.7291456,-0.22062 9.3010205,-0.40114 19.0486135,-0.40114 h 17.722889 l 6.304398,-4.93605 6.304423,-4.93607 53.849266,-0.18564 c 53.369,-0.18415 53.84925,-0.17384 53.84929,1.13603 1e-4,1.30786 -0.47783,1.31973 -45.46805,1.13064 l -45.468162,-0.1911 4.580995,3.6607 4.581029,3.66067 26.429308,-0.009 c 14.53613,-0.006 26.96083,-0.27546 27.61048,-0.59973 1.7306,-0.86387 3.42838,-0.11802 3.42911,1.50664 6.3e-4,1.41199 -0.0554,1.41559 -18.63478,1.19327 l -18.635421,-0.22302 1.650514,1.43811 c 1.584987,1.38102 2.183467,1.42988 15.072777,1.23062 12.89645,-0.19936 13.42228,-0.15642 13.42228,1.09795 0,1.50728 0.91719,1.43936 -15.57119,1.15309 z M 0.77611675,123.97446 c 0,-0.78386 1.19120795,-0.99132 5.69230645,-0.99132 5.6393268,0 5.7267548,-0.0277 9.3937938,-2.97393 3.423619,-2.7507 4.020791,-2.97393 7.95553,-2.97393 4.241333,0 4.27849,-0.0188 12.42591,-6.2783 l 8.171844,-6.27829 h 21.162426 21.162411 l 4.552392,3.6348 4.552367,3.63481 h 7.589163 7.58916 l 7.50808,-5.94786 7.50811,-5.947861 h 32.30918 32.30919 l 5.21399,-4.148254 c 2.86772,-2.281524 5.21402,-4.480153 5.21402,-4.885844 0,-0.405673 0.47145,-0.874308 1.04767,-1.041391 3.23158,-0.937064 4.46639,2.427046 1.25716,3.425012 -1.03716,0.322515 -4.13687,2.396904 -6.88822,4.609752 l -5.00245,4.023336 h -32.31472 -32.31471 l -6.24391,4.95657 -6.24391,4.95654 h 25.58669 25.58669 l 2.84317,2.31305 c 1.56376,1.27219 3.33491,2.31305 3.93593,2.31305 0.60689,0 1.09278,0.73466 1.09278,1.6522 0,1.22011 -0.44525,1.65217 -1.70254,1.65217 -0.93642,0 -1.93457,-0.52043 -2.21815,-1.15652 -0.2836,-0.6361 -1.47379,-1.97435 -2.64485,-2.97393 l -2.12924,-1.81741 H 129.87019 95.006975 l -4.552367,-3.6348 -4.552392,-3.63479 H 72.50316 59.104089 l 3.313027,2.69632 3.313026,2.69634 10.895548,-0.21806 c 10.428938,-0.20873 10.895515,-0.16148 10.895515,1.1037 0,1.26731 -0.465959,1.3127 -11.314577,1.10223 l -11.314584,-0.2195 -4.633951,-3.58051 c -4.550918,-3.51638 -4.722591,-3.58052 -9.581124,-3.58052 h -4.947172 l -6.869282,5.28698 -6.869284,5.28698 h 4.880578 c 4.497701,0 4.967201,-0.14256 5.985215,-1.8174 1.31558,-2.16437 4.319828,-2.48377 4.662152,-0.49565 0.162502,0.94323 -0.725202,1.74759 -3.099446,2.8087 -2.953573,1.32005 -4.488435,1.48696 -13.672496,1.48696 H 20.401803 l -3.701488,2.97393 -3.701463,2.97393 H 6.8874842 c -4.8735945,0 -6.11136745,-0.20075 -6.11136745,-0.99129 z M 12.719272,112.57591 c -9.4833606,-0.1613 -11.94315525,-0.39125 -11.94315525,-1.11689 0,-0.72967 2.66038045,-0.95923 13.20033825,-1.13901 7.340089,-0.12514 13.444971,0.042 13.751373,0.37641 0.885685,0.96692 -0.190062,2.38645 -1.688361,2.22806 -0.75737,-0.08 -6.751446,-0.23692 -13.320195,-0.34857 z M 36.815124,92.252524 28.886131,85.974243 h -4.661225 c -4.417305,0 -4.854921,-0.155675 -8.362689,-2.973931 -3.667039,-2.94626 -3.754467,-2.973929 -9.3937938,-2.973929 -4.5010985,0 -5.69230645,-0.207455 -5.69230645,-0.991317 0,-0.790531 1.23777295,-0.991316 6.11136745,-0.991316 h 6.1113678 l 3.701463,2.97393 3.701488,2.97393 h 11.090612 c 6.919246,0 11.297446,0.263898 11.64053,0.701642 0.302482,0.385908 1.456177,0.973332 2.56383,1.305382 2.290735,0.686767 2.721058,2.924568 0.68106,3.541853 -1.741292,0.526877 -2.786438,-0.02792 -3.726837,-1.978268 -0.685978,-1.422673 -1.26747,-1.587976 -5.585944,-1.587976 H 32.24482 l 6.665608,5.286983 6.66561,5.286983 h 5.024052 c 4.951591,0 5.090905,-0.0517 9.658003,-3.580518 l 4.633951,-3.580519 11.314584,-0.219499 c 10.848618,-0.21047 11.314577,-0.165041 11.314577,1.102237 0,1.265143 -0.466577,1.312407 -10.895515,1.103698 l -10.895548,-0.218057 -3.313026,2.69632 -3.313027,2.696338 H 72.50316 85.902216 l 4.552392,-3.634808 4.552367,-3.634808 h 34.436535 34.43655 l 2.67874,-2.179295 c 1.47334,-1.198621 2.67877,-2.53688 2.67877,-2.973931 0,-0.437032 0.94288,-0.794634 2.09529,-0.794634 1.67624,0 2.0953,0.330439 2.0953,1.652193 0,1.154767 -0.45745,1.652176 -1.51944,1.652176 -0.83567,0 -2.60343,0.89218 -3.92832,1.982633 l -2.40891,1.982614 H 131.12975 96.687994 l -4.976204,3.965247 -4.976227,3.965228 H 65.739835 44.744118 Z m -12.990796,0.330439 c -0.303764,-0.387539 -5.177098,-0.660858 -11.783099,-0.660858 -6.9513428,0 -11.26511225,-0.253071 -11.26511225,-0.660879 0,-0.406871 4.20895085,-0.660877 10.95060825,-0.660877 6.346925,0 11.673245,-0.304962 12.669521,-0.725396 1.339765,-0.565375 2.005002,-0.499789 3.015843,0.297281 1.067739,0.841918 1.106369,1.203716 0.218569,2.047132 -1.227984,1.166717 -3.041192,1.339926 -3.806425,0.363597 z M 104.25763,84.162235 52.26847,83.981644 45.609109,78.699606 38.949748,73.417569 H 20.25567 c -16.0759865,0 -18.7635692,-0.142749 -19.1903515,-1.01981 -0.66571281,-1.367971 0.3331059,-2.058203 1.5686218,-1.083973 0.7037013,0.554884 6.3654555,0.782027 19.4932137,0.782027 h 18.501451 l 6.243912,4.956564 6.243934,4.956544 h 5.91026 5.910283 l 5.821856,-4.626124 5.821866,-4.626106 h 8.867824 8.867824 l 2.843171,-2.313053 2.843175,-2.313052 h 11.82066 c 7.83593,0 12.14771,-0.257903 12.79087,-0.765054 0.73487,-0.579463 1.29249,-0.554135 2.29886,0.104526 0.73076,0.478208 1.21483,1.335525 1.0757,1.905133 -0.21976,0.899316 -2.01906,1.008364 -13.66774,0.828297 -12.88156,-0.199136 -13.4804,-0.150241 -15.065317,1.23073 l -1.650514,1.438109 18.635421,-0.223003 c 18.17095,-0.217439 18.63541,-0.190051 18.63532,1.098753 -7e-5,1.299874 -0.47489,1.318457 -28.70614,1.123124 l -28.706042,-0.198592 -4.581004,3.668191 -4.58102,3.66819 h 42.979956 c 24.90125,0 43.59269,-0.258596 44.43671,-0.614756 0.80123,-0.338119 1.945,-0.376841 2.54171,-0.08599 1.42201,0.693006 0.83796,2.993546 -0.76583,3.016606 -0.68616,0.0093 -24.64265,-0.06331 -53.23668,-0.162606 z M 52.110767,72.977053 c -0.576218,-0.181715 -1.047665,-0.682459 -1.047665,-1.112729 0,-0.43025 -4.060536,-3.974182 -9.023436,-7.875399 L 33.01623,56.895797 H 19.659472 6.3027374 l 3.3130265,2.712525 3.3130261,2.712524 7.752593,-0.346493 c 7.640148,-0.341473 7.752568,-0.324651 7.752568,1.160628 0,1.487078 -0.108572,1.503002 -8.171629,1.196897 L 12.090692,64.021654 7.456741,60.458725 C 4.908069,58.499116 2.3622955,56.895797 1.7994532,56.895797 c -0.5628422,0 -1.02333645,-0.297393 -1.02333645,-0.660877 0,-0.369648 2.29422765,-0.660859 5.20648645,-0.660859 4.9231768,0 5.3906798,-0.141063 8.5907138,-2.592237 l 3.384182,-2.592237 13.828918,-0.200167 c 13.240321,-0.191643 13.82894,-0.145371 13.82894,1.088955 0,1.233109 -0.582703,1.280205 -13.40988,1.083485 L 18.795621,52.156205 16.763749,53.865123 14.7319,55.574061 h 10.018169 10.018192 l 5.415577,4.308593 5.415579,4.308612 17.178719,-0.178155 17.178731,-0.178156 1.127609,-1.8562 c 0.806476,-1.3276 1.642461,-1.798109 2.935471,-1.652194 2.5725,0.290311 2.830555,2.373974 0.38485,3.107181 -1.089645,0.326673 -2.483315,1.071027 -3.097023,1.654105 -0.952515,0.905012 -3.450274,1.060162 -17.067307,1.060162 H 48.288971 l 1.596584,1.397588 c 0.878154,0.768688 2.471364,1.661335 3.540483,1.9837 1.359151,0.409793 1.863382,1.017487 1.676244,2.020231 -0.282194,1.512031 -1.253715,1.975627 -2.991515,1.427506 z M 188.0952,70.774152 c -0.32318,-0.412342 -8.47141,-0.660877 -21.66599,-0.660877 h -21.148 l -3.7015,-2.973931 -3.70145,-2.973931 h -18.49108 -18.49107 l -7.5081,-5.94786 -7.508103,-5.947862 H 75.83677 65.793599 l -3.593724,2.781089 c -1.976539,1.529603 -3.593722,3.165255 -3.593722,3.634808 0,0.470041 -0.941634,0.853701 -2.095281,0.853701 -1.545079,0 -2.095305,-0.351363 -2.095305,-1.33809 0,-0.774553 0.794217,-1.583349 1.885762,-1.92042 1.037188,-0.320266 3.376626,-1.799869 5.198813,-3.288014 l 3.313027,-2.705707 H 74.047668 83.2822 L 77.88285,45.991392 72.483512,41.695706 H 36.629815 c -31.311214,0 -35.85369825,-0.125514 -35.85369825,-0.991298 0,-0.845027 2.26175095,-0.991316 15.32712125,-0.991316 h 15.327146 l 4.127557,-3.304369 4.12758,-3.30437 H 72.023945 104.3624 l 3.10351,-2.506145 c 1.70691,-1.378367 3.10351,-3.014039 3.10351,-3.634808 0,-0.763312 0.6782,-1.128651 2.09528,-1.128651 1.67624,0 2.09528,0.330439 2.09528,1.652175 0,0.909676 -0.48656,1.652195 -1.08266,1.652195 -0.59549,0 -2.74833,1.338259 -4.78415,2.973937 l -3.70146,2.97393 h -9.666628 -9.666604 l 6.480752,5.110216 6.480751,5.110214 5.686219,-4.449337 5.68621,-4.449356 h 8.82432 8.8243 l 2.84317,-2.313053 c 2.33424,-1.899006 3.45509,-2.313053 6.26173,-2.313053 3.14045,0 3.92653,-0.403237 9.66249,-4.95657 l 6.24392,-4.956544 h 5.51065 c 3.18666,0 5.9373,-0.336434 6.52234,-0.797764 0.79024,-0.623111 1.31077,-0.561983 2.37755,0.279185 0.75117,0.592332 1.15284,1.514541 0.89258,2.04936 -0.38229,0.785493 -1.81383,0.910388 -7.44814,0.649826 l -6.97491,-0.322571 -5.0287,4.069516 -5.0287,4.069506 19.27667,-0.156985 c 18.14747,-0.147807 19.27669,-0.08655 19.27669,1.044425 0,1.136444 -1.29342,1.194013 -23.91769,1.064302 -23.38429,-0.134132 -23.95342,-0.106029 -25.51908,1.258136 l -1.60134,1.395266 28.87151,-0.09947 c 26.77763,-0.09235 28.89272,-0.01686 29.16353,1.045868 0.37931,1.487864 -1.47712,2.371989 -3.33467,1.588088 -0.83479,-0.352281 -17.14607,-0.614756 -38.20369,-0.614756 h -36.74691 l -5.21484,4.148909 -5.21485,4.148891 5.2616,4.112023 c 5.17149,4.041586 5.34065,4.112024 9.87496,4.112024 4.52685,0 4.7066,-0.07437 9.58956,-3.965247 l 4.97622,-3.965247 h 31.48712 31.48712 l 3.83163,-3.139141 c 2.10739,-1.726528 4.06141,-3.659592 4.3423,-4.295685 0.28086,-0.636093 1.2768,-1.156527 2.21322,-1.156527 1.25726,0 1.70251,0.432087 1.70251,1.652194 0,0.908702 -0.40514,1.652175 -0.90035,1.652175 -0.49518,0 -3.07504,1.635672 -5.73305,3.634808 l -4.83272,3.634808 h -31.2667 -31.26666 l -4.03205,2.973931 -4.03208,2.973931 h 12.36821 c 7.38971,0 12.71665,-0.274745 13.23381,-0.682553 1.37753,-1.08622 3.78155,0.0093 3.49504,1.592753 -0.17605,0.972977 -0.83172,1.38839 -2.13962,1.355645 -1.03716,-0.02604 -10.44087,-0.100414 -20.89708,-0.165229 L 110.26199,56.895873 96.346145,45.991467 82.430322,35.087043 H 61.463365 40.496418 l -2.843172,2.313071 -2.843172,2.313054 H 54.050887 73.2917 l 14.238746,11.252022 14.238734,11.252023 54.05852,-0.06389 c 37.95488,-0.04478 54.03356,0.14687 53.97471,0.6437 -0.0461,0.389149 -0.14017,0.930582 -0.20906,1.20319 -0.0689,0.272627 -15.49362,0.405466 -34.27717,0.295201 l -34.15194,-0.200447 2.88648,2.34829 2.88649,2.348291 h 20.20183 c 12.7779,0 20.51993,-0.250822 21.06742,-0.682533 1.22111,-0.962861 3.66024,-0.06763 3.66024,1.34341 0,0.649188 -0.59657,1.360853 -1.32572,1.581476 -1.73859,0.526071 -1.8382,0.515487 -2.4458,-0.25972 z M 21.100444,28.644012 C 3.8094208,28.482906 0.77611675,28.308535 0.77611675,27.475178 c 0,-0.538754 0.68032375,-0.979571 1.51181735,-0.979571 0.8314935,0 2.7912375,-1.040866 4.354989,-2.313052 L 9.4860947,21.869503 H 21.306755 c 7.013089,0 12.172702,-0.277593 12.686247,-0.682534 1.221119,-0.962879 3.660244,-0.06763 3.660244,1.343411 0,1.411038 -2.439125,2.306271 -3.660244,1.343411 -0.507439,-0.400146 -5.417241,-0.682534 -11.866442,-0.682534 -10.748455,0 -11.047492,0.03915 -13.0327277,1.7086 L 7.0619841,26.608458 25.701562,26.386822 c 11.923009,-0.141811 18.749148,0.01686 18.943676,0.439225 0.548778,1.192513 -0.399699,2.316031 -1.823612,2.16015 -0.768275,-0.08411 -10.542809,-0.238083 -21.721182,-0.342185 z M 59.811212,26.016856 53.05416,25.785292 46.841394,20.853477 c -4.723613,-3.749701 -5.80974,-4.931836 -4.531294,-4.931836 0.95002,0 3.857623,1.747136 6.68395,4.016295 l 5.00248,4.016314 7.962087,-0.216277 c 7.494798,-0.203594 7.962111,-0.138627 7.962111,1.105459 0,1.491574 -0.18816,1.513399 -10.109516,1.173424 z m 33.458343,-0.628918 c -0.292836,-0.662957 -2.826589,-3.064076 -5.630536,-5.335839 -4.009482,-3.24847 -4.737867,-4.130458 -3.411051,-4.130458 0.927878,0 3.368477,1.365647 5.423536,3.034758 2.055084,1.669111 4.611263,3.30525 5.68038,3.635857 1.374831,0.425155 1.865545,1.034123 1.676244,2.080272 -0.334222,1.847058 -3.012326,2.35953 -3.738573,0.71541 z"
       id="path179" /></g></svg>
