<?xml version="1.0" encoding="UTF-8" standalone="no"?>
<!-- Created with Inkscape (http://www.inkscape.org/) -->

<svg
   width="209.23465mm"
   height="234.5443mm"
   viewBox="0 0 209.23465 234.5443"
   version="1.1"
   id="svg5"
   xml:space="preserve"
   inkscape:export-filename="bitmap.png"
   inkscape:export-xdpi="96"
   inkscape:export-ydpi="96"
   inkscape:version="1.2.2 (732a01da63, 2022-12-09)"
   sodipodi:docname="disegno-rotated-transparent.svg"
   xmlns:inkscape="http://www.inkscape.org/namespaces/inkscape"
   xmlns:sodipodi="http://sodipodi.sourceforge.net/DTD/sodipodi-0.dtd"
   xmlns="http://www.w3.org/2000/svg"
   xmlns:svg="http://www.w3.org/2000/svg"><sodipodi:namedview
     id="namedview7"
     pagecolor="#ffffff"
     bordercolor="#666666"
     borderopacity="1.0"
     inkscape:showpageshadow="2"
     inkscape:pageopacity="0.0"
     inkscape:pagecheckerboard="0"
     inkscape:deskcolor="#d1d1d1"
     inkscape:document-units="mm"
     showgrid="false"
     inkscape:zoom="0.71624579"
     inkscape:cx="328.79774"
     inkscape:cy="490.75332"
     inkscape:window-width="1920"
     inkscape:window-height="991"
     inkscape:window-x="-9"
     inkscape:window-y="-9"
     inkscape:window-maximized="1"
     inkscape:current-layer="layer1" /><defs
     id="defs2" /><g
     inkscape:label="Livello 1"
     inkscape:groupmode="layer"
     id="layer1"
     style="display:inline"
     transform="translate(-0.77611675,-15.921641)"><path
       style="fill:#9a0013;stroke-width:0.744238;fill-opacity:0.05"
       d="m 93.064808,249.90744 c 0.34185,-0.43615 4.98564,-0.69746 12.394502,-0.69746 11.71572,0 11.87407,-0.0198 14.19852,-1.77583 l 2.35069,-1.77582 2.35068,1.77582 2.35068,1.77583 h 22.19575 22.19574 l 4.12758,-3.30437 4.12755,-3.30437 h 15.32715 c 13.06537,0 15.32712,-0.14631 15.32712,-0.99132 0,-0.8657 -4.54248,-0.99129 -35.8537,-0.99129 h -35.85369 l -5.39934,-4.29569 -5.39935,-4.29569 h 9.64917 9.64917 l 3.70146,-2.97392 c 2.03582,-1.63566 4.18869,-2.97393 4.78415,-2.97393 0.5961,0 1.08268,-0.7425 1.08268,-1.65218 0,-1.32175 -0.41906,-1.65218 -2.0953,-1.65218 -1.48904,0 -2.09528,0.35808 -2.09528,1.23757 0,0.68067 -1.68877,2.46503 -3.75281,3.96525 l -3.7528,2.72766 h -9.4641 -9.4641 l -7.92899,-6.2783 -7.92902,-6.2783 H 91.398778 72.908628 l -3.70145,-2.97393 -3.7015,-2.97394 h -21.02982 c -14.81133,0 -21.31676,-0.22621 -22.00008,-0.76503 -0.73487,-0.57946 -1.29248,-0.55414 -2.29885,0.1044 -0.73077,0.4782 -1.21818,1.31358 -1.08317,1.85638 0.21145,0.85045 3.37496,0.96708 22.87462,0.84346 l 22.62915,-0.1435 2.50441,2.06123 2.50441,2.06124 -34.1346,-0.20042 c -28.9648296,-0.1701 -34.2040296,-0.0576 -34.59315956,0.743 -0.25221,0.51888 0.11827,1.3983 0.82338996,1.95429 1.00132,0.78956 1.5035,0.83622 2.29373,0.21312 0.76848,-0.60598 13.5169796,-0.79779 53.0261096,-0.79779 h 52.014372 l 14.22949,11.23486 14.22951,11.23484 h 19.24081 19.24081 l -2.84317,2.31306 -2.84317,2.31306 H 148.86355 127.43662 L 114.04641,236.65328 100.65618,226.07929 H 81.746838 c -11.8889,0 -19.23072,-0.25339 -19.77494,-0.68253 -1.25753,-0.99158 -3.66023,-0.0496 -3.66023,1.43486 0,1.53135 2.25293,2.36165 3.57641,1.31805 0.62278,-0.49108 5.27682,-0.74862 13.52803,-0.74862 h 12.57863 l -3.70147,2.97393 -3.70148,2.97393 h -31.73614 -31.73615 l -4.83273,3.6348 c -2.6580096,1.99914 -5.2700696,3.63481 -5.8045996,3.63481 -0.53453,0 -0.97186,0.74348 -0.97186,1.65218 0,1.32175 0.41906,1.65217 2.09528,1.65217 1.45357,0 2.09531,-0.36182 2.09531,-1.18137 0,-0.64974 1.8044096,-2.58281 4.0098396,-4.29566 l 4.00983,-3.11432 h 31.84588 31.84588 l 4.97623,-3.96523 c 4.63742,-3.69528 5.23694,-3.96524 8.8055,-3.96524 3.48634,0 4.19912,0.29608 7.959452,3.30646 l 4.13022,3.30647 -4.99982,3.99588 -4.999842,3.99588 -28.70604,-0.19796 c -28.23097,-0.19468 -28.70605,-0.17609 -28.70615,1.12379 -6e-5,1.28879 0.46496,1.31621 18.64866,1.10011 l 18.64875,-0.22163 -2.03188,1.7086 c -1.98823,1.67191 -2.2716,1.7086 -13.20033,1.7086 -7.37107,0 -11.16846,-0.24034 -11.16846,-0.70683 0,-0.38876 -0.84861,-0.61181 -1.88578,-0.49565 -2.344,0.26249 -3.04857,2.81865 -0.95179,3.45309 0.79288,0.23992 1.83114,0.12908 2.30721,-0.24633 0.51355,-0.40494 5.67317,-0.68254 12.68626,-0.68254 h 11.82065 l 2.84318,-2.31305 2.84315,-2.31307 h 8.86958 8.86953 l 5.400922,-4.29692 5.4009,-4.29692 5.66845,4.43544 5.66845,4.43544 -2.24063,1.8441 c -2.22911,1.83466 -2.29696,1.84411 -13.23075,1.84411 -7.068112,0 -11.328972,-0.26715 -11.939562,-0.74862 -1.47825,-1.16564 -3.7333,-0.13545 -3.42569,1.56501 0.28479,1.57413 2.67404,2.37417 3.59211,1.20283 z m 105.840932,-1.19141 c 9.09701,-0.16822 11.10503,-0.38108 11.10503,-1.17743 0,-0.80001 -1.74348,-0.97341 -9.84787,-0.9794 -5.41632,-0.003 -11.26219,-0.19161 -12.9908,-0.41689 -2.96704,-0.38672 -3.14294,-0.31234 -3.14294,1.329 0,1.40523 0.36164,1.71098 1.88576,1.59435 1.03716,-0.0795 6.88304,-0.2367 12.99082,-0.34963 z m 11.10503,-22.3062 c 0,-0.54521 -0.46049,-0.99129 -1.02333,-0.99129 -0.56285,0 -3.10862,-1.61101 -5.65729,-3.58 l -4.63395,-3.58 -7.94988,-0.22001 c -7.2361,-0.20028 -7.9772,-0.10848 -8.25409,1.0225 -0.38523,1.5734 1.41895,2.48855 3.32243,1.68528 0.80123,-0.33812 3.85651,-0.61477 6.78953,-0.61477 5.11723,0 5.46509,0.10672 8.60637,2.6435 l 3.27359,2.6435 h -13.46039 -13.46041 l -8.71026,-6.96879 c -4.79064,-3.83284 -8.83219,-7.40156 -8.98125,-7.93049 -0.33094,-1.17454 -4.00886,-1.28428 -4.54457,-0.13562 -0.52022,1.11544 0.14658,2.47828 1.21278,2.47828 0.47693,0 2.15581,0.89217 3.73083,1.98261 l 2.86369,1.98264 h -16.74203 c -10.90576,0 -16.93376,0.24458 -17.29198,0.70162 -0.30246,0.3859 -1.45618,0.97333 -2.5638,1.3054 -2.32395,0.69672 -2.71023,2.92785 -0.61656,3.56136 1.56358,0.47311 2.52878,-0.1051 3.96201,-2.37361 0.96606,-1.52907 1.12065,-1.54417 17.63074,-1.72213 l 16.65615,-0.17946 6.06917,4.64042 6.06918,4.64042 h 16.85167 c 14.42051,0 16.85165,-0.14294 16.85165,-0.99132 z M 87.226678,214.84456 c 0.30467,-0.38873 5.26196,-0.66088 12.03773,-0.66088 h 11.519772 l 2.84317,-2.31307 2.84317,-2.31305 h 8.86783 8.86782 l 5.82187,-4.6261 5.82185,-4.62613 h 5.90896 5.90895 l 6.66561,5.28699 6.66561,5.287 h 18.50014 c 13.66713,0 18.78141,0.21581 19.57684,0.82609 0.87029,0.66769 1.02294,0.50932 0.79622,-0.82609 l -0.28051,-1.6522 -18.89378,-0.17721 -18.89379,-0.17722 -6.22873,-4.9445 -6.22873,-4.94447 h -51.60706 c -37.320072,0 -51.869922,-0.20727 -52.556462,-0.74863 -1.3583,-1.07105 -3.57646,-0.19685 -3.57646,1.40948 0,1.60635 2.21816,2.48055 3.57646,1.40951 0.68253,-0.53821 13.08495,-0.74863 44.12568,-0.74863 h 43.176282 l -4.58102,3.66259 -4.581,3.66259 -28.49598,-0.0959 c -26.419132,-0.0888 -28.517242,-0.0132 -28.787942,1.04958 -0.37932,1.48786 1.47713,2.37196 3.33467,1.58809 0.8012,-0.33812 8.71319,-0.61477 17.58215,-0.61477 h 16.125432 l -1.96842,1.65218 c -1.90576,1.5996 -2.3187,1.65219 -12.969292,1.65219 -7.47489,0 -11.32513,-0.25569 -12.01258,-0.79776 -0.79022,-0.62311 -1.31075,-0.562 -2.37752,0.27919 -0.75119,0.59233 -1.13749,1.5461 -0.85843,2.11951 0.56246,1.1558 3.52045,1.41645 4.33149,0.38168 z M 210.01077,203.94014 c 0,-0.7838 -1.19083,-0.99131 -5.68879,-0.99131 h -5.68879 l -4.12758,-3.30437 c -3.8662,-3.09513 -4.39426,-3.30437 -8.3395,-3.30437 h -4.21195 l -12.16284,-9.52633 -12.16284,-9.52635 -8.38117,-0.22154 c -7.91607,-0.20925 -8.38115,-0.14817 -8.38115,1.10021 0,1.24454 0.46503,1.3088 7.96211,1.10009 l 7.96209,-0.22165 2.88831,2.36949 2.88829,2.3695 h -19.27101 -19.27102 l -2.98358,-2.47828 c -1.64099,-1.36305 -3.22498,-3.02069 -3.52002,-3.68365 -0.72029,-1.61851 -3.4059,-1.14393 -3.7333,0.65971 -0.16821,0.92664 0.28839,1.56029 1.30831,1.81554 0.86166,0.21566 2.84645,1.43323 4.4106,2.70576 l 2.84391,2.31366 -4.12072,3.29885 -4.12071,3.29889 h -7.17298 -7.172972 l -7.50808,-5.94786 -7.50811,-5.94786 h -32.30918 -32.30919 l -5.09809,-4.13047 c -2.80395,-2.27173 -5.3269996,-4.65089 -5.6067796,-5.28698 -0.27976,-0.6361 -1.2748,-1.15653 -2.21122,-1.15653 -1.25726,0 -1.70251,0.43207 -1.70251,1.65218 0,0.9087 0.41382,1.65218 0.91962,1.65218 0.50577,0 3.45888,1.93306 6.5624896,4.29569 l 5.64289,4.29567 h 32.22006 32.22004 l 6.66561,5.28699 6.66561,5.28699 h -25.60632 -25.60633 l -2.03185,1.72229 c -1.11754,0.94727 -2.9066,1.98862 -3.97575,2.31412 -1.37716,0.41929 -1.86585,1.02305 -1.67622,2.07098 0.33422,1.84718 3.0103,2.35832 3.74552,0.71541 0.29663,-0.66296 1.49753,-2.02321 2.66859,-3.02279 l 2.12924,-1.8174 h 34.44175 34.441732 l 4.97623,-3.96523 4.97623,-3.96524 h 13.39668 13.39667 l -3.31303,2.70298 -3.31302,2.70297 -10.66515,-0.24852 c -8.79406,-0.2049 -10.74772,-0.0789 -11.13585,0.71873 -0.25888,0.53198 0.1062,1.42213 0.81128,1.97811 1.00131,0.78954 1.50348,0.83622 2.2937,0.2131 0.66852,-0.52714 4.16308,-0.79776 10.30156,-0.79776 h 9.28983 l 4.55237,-3.63481 c 4.52203,-3.61057 4.58625,-3.6348 9.62821,-3.6348 h 5.07585 l 6.88166,5.45221 6.88166,5.45219 -5.06442,-0.2259 c -4.4929,-0.20042 -5.15348,-0.41068 -5.85386,-1.86323 -0.57201,-1.18633 -1.30617,-1.57919 -2.66532,-1.42628 -2.68257,0.3018 -2.9195,2.37469 -0.35914,3.14228 1.14117,0.34212 2.32233,0.93777 2.62481,1.32368 0.34083,0.43484 4.56366,0.70164 11.10546,0.70164 h 10.55555 l 4.43094,3.30437 4.43092,3.30437 h 5.91698 c 4.7008,0 5.91698,-0.20376 5.91698,-0.99132 z m -11.94315,-11.39855 c 9.84186,-0.16729 11.94315,-0.37424 11.94315,-1.1762 0,-0.80731 -1.86621,-0.97316 -10.95061,-0.97316 -6.51807,0 -11.66476,-0.30137 -12.71492,-0.74454 -1.43821,-0.60693 -1.96761,-0.52535 -2.86412,0.44143 -0.81147,0.87507 -0.8569,1.41676 -0.1732,2.0663 0.5096,0.48417 1.35181,0.81481 1.87158,0.73475 0.51975,-0.08 6.31944,-0.23693 12.88819,-0.34858 z m -8.94371,-11.2235 12.21872,-0.21212 2.82224,-2.29603 c 1.55225,-1.26283 3.50259,-2.29604 4.33408,-2.29604 0.8315,0 1.51182,-0.42755 1.51182,-0.95007 0,-0.79625 -3.49446,-0.9835 -21.58149,-1.15653 -12.32634,-0.11802 -21.81782,0.0513 -22.13256,0.39449 -1.66872,1.81982 0.57664,2.03743 18.7753,1.81954 l 18.62625,-0.223 -1.65051,1.43811 c -1.58499,1.381 -2.18347,1.42986 -15.0728,1.23061 -12.89643,-0.19934 -13.42226,-0.15642 -13.42226,1.09797 0,1.50725 -0.91716,1.43934 15.57121,1.15307 z m -89.180362,-5.29985 c 0.281382,-0.63608 2.045252,-2.42044 3.919722,-3.96525 l 3.40816,-2.8087 h 31.91849 31.91848 l 3.70149,-2.97393 3.70146,-2.97393 h 15.74972 c 13.44101,0 15.7497,-0.14536 15.7497,-0.99131 0,-0.86557 -4.50098,-0.99132 -35.48027,-0.99132 h -35.48028 l -5.44775,-4.29566 -5.44777,-4.29569 h 8.90953 8.90949 l 3.31303,-2.70571 c 1.82218,-1.48814 4.18778,-2.97557 5.25692,-3.30542 1.37516,-0.42427 1.86557,-1.03247 1.67622,-2.07888 -0.33422,-1.84711 -3.01147,-2.35902 -3.74147,-0.71542 -0.29443,0.66297 -2.06901,2.4693 -3.94348,4.0141 l -3.40816,2.80872 h -9.69084 -9.69084 l -7.5081,-5.94786 -7.5081,-5.94786 H 91.880128 73.031388 l -4.21693,-3.26648 -4.21693,-3.26647 -22.62915,-0.13881 c -21.32237,-0.13077 -22.62915,-0.0699 -22.62915,1.05433 0,1.12384 1.29001,1.18485 22.21009,1.05063 l 22.21008,-0.14257 2.8883,2.35465 2.88828,2.35466 h -32.26427 c -20.47232,0 -32.5717396,-0.24245 -33.1055396,-0.66335 -1.16868,-0.92156 -3.91444996,0.74356 -3.30213996,2.00253 0.41175996,0.84665 7.49933996,0.94922 54.25350956,0.78524 l 53.779882,-0.18862 14.36242,11.25824 14.36243,11.25828 h 18.75822 18.7582 l -2.84317,2.31305 -2.84317,2.31306 H 148.88237 128.31235 L 114.47446,157.05336 100.63653,146.1842 79.683628,146.04146 c -20.02432,-0.13638 -20.95291,-0.0876 -20.95291,1.10166 0,1.17759 0.76509,1.23381 14.24798,1.04678 l 14.24798,-0.19763 -3.73651,3.02596 -3.7365,3.02595 h -31.49943 -31.49942 l -3.73651,3.03474 c -2.05505,1.66914 -4.6112296,3.30527 -5.6803496,3.63588 -1.37483,0.42516 -1.86554,1.03413 -1.67625,2.08028 0.33423,1.84707 3.01174,2.35917 3.74057,0.71538 0.29394,-0.66295 2.2586696,-2.61797 4.3660596,-4.34452 l 3.83163,-3.13915 h 31.48712 31.48712 l 4.97622,-3.96524 c 4.895,-3.9005 5.05233,-3.96523 9.63632,-3.96523 4.60608,0 4.72057,0.0481 9.874952,4.14889 l 5.21485,4.14891 -5.2616,4.11203 -5.261632,4.11201 h -25.7609 c -18.06147,0 -26.22533,-0.2287 -27.31475,-0.76518 -2.01569,-0.99262 -4.29023,-0.28506 -4.29023,1.33459 0,1.48455 2.40272,2.42646 3.66025,1.43487 0.53758,-0.4239 7.20908,-0.68253 17.60637,-0.68253 h 16.74082 l -1.96843,1.65218 c -1.9022,1.5966 -2.33177,1.65219 -12.77295,1.65219 -5.94247,0 -11.46006,-0.27665 -12.26126,-0.61478 -1.88303,-0.79463 -3.70891,0.10603 -3.33324,1.6442 0.27117,1.11027 1.31149,1.18864 13.70185,1.03217 l 13.40844,-0.16935 3.38418,-2.5983 3.38418,-2.59833 h 8.74597 8.745942 l 5.26954,-4.11822 5.26954,-4.11823 6.47987,5.10955 6.4799,5.10951 h -9.54468 -9.54465 l -4.03205,2.97393 c -2.217662,1.63565 -4.425392,2.97393 -4.906102,2.97393 -0.48071,0 -0.87402,0.74348 -0.87402,1.65217 0,1.22014 0.44524,1.6522 1.70252,1.6522 0.93641,0 1.93276,-0.52043 2.21412,-1.15653 z m 80.375122,-23.11752 11.79464,-0.21313 3.25202,-2.62607 c 3.15998,-2.55174 3.41319,-2.62605 8.94872,-2.62605 4.50501,0 5.69672,-0.20739 5.69672,-0.99132 0,-0.54521 -0.67419,-0.99129 -1.4982,-0.99129 -0.82401,0 -3.35563,-1.48697 -5.62579,-3.30437 l -4.12755,-3.30437 h -5.74391 c -3.15913,0 -6.39943,-0.27666 -7.20066,-0.61476 -1.90348,-0.80329 -3.70766,0.11185 -3.32243,1.68526 0.27568,1.12605 1.01034,1.22216 7.83503,1.02517 l 7.53084,-0.21736 2.88829,2.3652 2.88828,2.36523 h -13.37973 -13.37971 l -8.46259,-6.77397 c -4.6544,-3.72567 -8.7009,-7.31636 -8.99224,-7.97932 -0.72268,-1.64461 -3.40159,-1.13159 -3.73579,0.7154 -0.18983,1.049 0.29763,1.64959 1.67624,2.06524 1.06912,0.32235 2.66233,1.21501 3.54048,1.98369 l 1.59659,1.39758 h -15.71238 c -14.44332,0 -15.88453,0.10673 -17.8434,1.32176 -1.17203,0.72697 -2.67206,1.32175 -3.33341,1.32175 -2.00768,0 -0.94306,2.94289 1.14964,3.17793 1.3022,0.14631 2.13566,-0.32145 2.94404,-1.65217 l 1.12761,-1.85619 17.17873,-0.17817 17.17872,-0.17815 5.41558,4.3086 5.41558,4.30861 h 9.834 9.83397 l -2.1723,1.71291 -2.1723,1.71291 -13.08524,-0.2131 c -12.57461,-0.20477 -13.08523,-0.16205 -13.08523,1.09581 0,1.5096 -0.83864,1.44555 15.14714,1.15672 z m -81.711392,-17.84375 12.218742,-0.21214 2.82224,-2.29604 2.82226,-2.29603 h 8.86783 8.86782 l 5.82187,-4.62613 5.82185,-4.6261 h 6.32932 6.32935 l 6.24391,4.95654 6.24394,4.95655 h 18.50145 c 13.27251,0 18.78568,0.22415 19.50718,0.79306 0.78224,0.61682 1.00573,0.48566 1.00573,-0.59018 0,-0.76077 -0.59658,-1.56374 -1.32572,-1.78436 -0.72915,-0.22062 -9.30102,-0.40114 -19.04862,-0.40114 h -17.72288 l -6.3044,-4.93605 -6.30443,-4.93607 -53.84926,-0.18564 c -53.369002,-0.18415 -53.849252,-0.17384 -53.849292,1.13603 -10e-5,1.30786 0.47783,1.31973 45.46805,1.13064 l 45.468162,-0.1911 -4.58099,3.6607 -4.58103,3.66067 -26.42931,-0.009 c -14.536132,-0.006 -26.960832,-0.27546 -27.610482,-0.59973 -1.7306,-0.86387 -3.42838,-0.11802 -3.42911,1.50664 -6.3e-4,1.41199 0.0554,1.41559 18.63478,1.19327 l 18.635422,-0.22302 -1.65051,1.43811 c -1.58499,1.38102 -2.18347,1.42988 -15.072782,1.23062 -12.89645,-0.19936 -13.42228,-0.15642 -13.42228,1.09795 0,1.50728 -0.91719,1.43936 15.57119,1.15309 z M 210.01077,123.97446 c 0,-0.78386 -1.19121,-0.99132 -5.6923,-0.99132 -5.63933,0 -5.72676,-0.0277 -9.3938,-2.97393 -3.42362,-2.7507 -4.02079,-2.97393 -7.95553,-2.97393 -4.24133,0 -4.27849,-0.0188 -12.42591,-6.2783 l -8.17184,-6.27829 h -21.16243 -21.16241 l -4.55239,3.6348 -4.55237,3.63481 h -7.58916 -7.589162 l -7.50808,-5.94786 -7.50811,-5.947861 h -32.30918 -32.30919 l -5.21399,-4.148254 c -2.86772,-2.281524 -5.2140196,-4.480153 -5.2140196,-4.885844 0,-0.405673 -0.47145,-0.874308 -1.04767,-1.041391 -3.23158,-0.937064 -4.46639,2.427046 -1.25716,3.425012 1.03716,0.322515 4.1368696,2.396904 6.8882196,4.609752 l 5.00245,4.023336 h 32.31472 32.31471 l 6.24391,4.95657 6.24391,4.95654 h -25.58669 -25.58669 l -2.84317,2.31305 c -1.56376,1.27219 -3.33491,2.31305 -3.93593,2.31305 -0.60689,0 -1.09278,0.73466 -1.09278,1.6522 0,1.22011 0.44525,1.65217 1.70254,1.65217 0.93642,0 1.93457,-0.52043 2.21815,-1.15652 0.2836,-0.6361 1.47379,-1.97435 2.64485,-2.97393 l 2.12924,-1.81741 h 34.86319 34.863212 l 4.55237,-3.6348 4.55239,-3.63479 h 13.39906 13.39907 l -3.31303,2.69632 -3.31302,2.69634 -10.89555,-0.21806 c -10.42894,-0.20873 -10.89552,-0.16148 -10.89552,1.1037 0,1.26731 0.46596,1.3127 11.31458,1.10223 l 11.31458,-0.2195 4.63396,-3.58051 c 4.55091,-3.51638 4.72259,-3.58052 9.58112,-3.58052 h 4.94717 l 6.86928,5.28698 6.86929,5.28698 h -4.88058 c -4.4977,0 -4.9672,-0.14256 -5.98522,-1.8174 -1.31558,-2.16437 -4.31982,-2.48377 -4.66215,-0.49565 -0.1625,0.94323 0.7252,1.74759 3.09945,2.8087 2.95357,1.32005 4.48843,1.48696 13.67249,1.48696 h 10.34544 l 3.70148,2.97393 3.70147,2.97393 h 6.11136 c 4.8736,0 6.11137,-0.20075 6.11137,-0.99129 z m -11.94315,-11.39855 c 9.48336,-0.1613 11.94315,-0.39125 11.94315,-1.11689 0,-0.72967 -2.66038,-0.95923 -13.20034,-1.13901 -7.34009,-0.12514 -13.44497,0.042 -13.75137,0.37641 -0.88568,0.96692 0.19006,2.38645 1.68836,2.22806 0.75737,-0.08 6.75145,-0.23692 13.3202,-0.34857 z m -24.09586,-20.323386 7.929,-6.278281 h 4.66122 c 4.41731,0 4.85492,-0.155675 8.36269,-2.973931 3.66704,-2.94626 3.75447,-2.973929 9.3938,-2.973929 4.50109,0 5.6923,-0.207455 5.6923,-0.991317 0,-0.790531 -1.23777,-0.991316 -6.11137,-0.991316 h -6.11136 l -3.70147,2.97393 -3.70148,2.97393 h -11.09062 c -6.91924,0 -11.29744,0.263898 -11.64053,0.701642 -0.30248,0.385908 -1.45617,0.973332 -2.56383,1.305382 -2.29073,0.686767 -2.72105,2.924568 -0.68106,3.541853 1.7413,0.526877 2.78644,-0.02792 3.72684,-1.978268 0.68598,-1.422673 1.26747,-1.587976 5.58594,-1.587976 h 4.82024 l -6.66561,5.286983 -6.66561,5.286983 h -5.02405 c -4.95159,0 -5.09091,-0.0517 -9.658,-3.580518 l -4.63396,-3.580519 -11.31458,-0.219499 c -10.84862,-0.21047 -11.31458,-0.165041 -11.31458,1.102237 0,1.265143 0.46658,1.312407 10.89552,1.103698 l 10.89555,-0.218057 3.31302,2.69632 3.31303,2.696338 h -13.39907 -13.39906 l -4.55239,-3.634808 -4.55237,-3.634808 H 81.343378 46.906828 l -2.67874,-2.179295 c -1.47334,-1.198621 -2.67877,-2.53688 -2.67877,-2.973931 0,-0.437032 -0.94288,-0.794634 -2.09529,-0.794634 -1.67624,0 -2.0953,0.330439 -2.0953,1.652193 0,1.154767 0.45745,1.652176 1.51944,1.652176 0.83567,0 2.60343,0.89218 3.92832,1.982633 l 2.40891,1.982614 h 34.44174 34.441752 l 4.97621,3.965247 4.97623,3.965228 h 20.99572 20.99572 z m 12.9908,0.330439 c 0.30376,-0.387539 5.1771,-0.660858 11.7831,-0.660858 6.95134,0 11.26511,-0.253071 11.26511,-0.660879 0,-0.406871 -4.20895,-0.660877 -10.95061,-0.660877 -6.34692,0 -11.67324,-0.304962 -12.66952,-0.725396 -1.33976,-0.565375 -2.005,-0.499789 -3.01584,0.297281 -1.06774,0.841918 -1.10637,1.203716 -0.21857,2.047132 1.22798,1.166717 3.04119,1.339926 3.80643,0.363597 z m -80.4333,-8.420728 51.98916,-0.180591 6.65936,-5.282038 6.65936,-5.282037 h 18.69408 c 16.07598,0 18.76357,-0.142749 19.19035,-1.01981 0.66571,-1.367971 -0.33311,-2.058203 -1.56862,-1.083973 -0.7037,0.554884 -6.36546,0.782027 -19.49322,0.782027 h -18.50145 l -6.24391,4.956564 -6.24393,4.956544 h -5.91026 -5.91029 l -5.82185,-4.626124 -5.82187,-4.626106 h -8.86782 -8.86783 l -2.84317,-2.313053 -2.84317,-2.313052 H 98.963518 c -7.83593,0 -12.14771,-0.257903 -12.79087,-0.765054 -0.73487,-0.579463 -1.29249,-0.554135 -2.29886,0.104526 -0.73076,0.478208 -1.21483,1.335525 -1.0757,1.905133 0.21976,0.899316 2.01906,1.008364 13.66774,0.828297 12.881562,-0.199136 13.480402,-0.150241 15.065322,1.23073 l 1.65051,1.438109 -18.635422,-0.223003 c -18.17095,-0.217439 -18.63541,-0.190051 -18.63532,1.098753 7e-5,1.299874 0.47489,1.318457 28.706142,1.123124 l 28.70604,-0.198592 4.581,3.668191 4.58102,3.66819 H 99.505168 c -24.90125,0 -43.59269,-0.258596 -44.43671,-0.614756 -0.80123,-0.338119 -1.945,-0.376841 -2.54171,-0.08599 -1.42201,0.693006 -0.83796,2.993546 0.76583,3.016606 0.68616,0.0093 24.64265,-0.06331 53.236682,-0.162606 z m 52.14686,-11.185182 c 0.57622,-0.181715 1.04767,-0.682459 1.04767,-1.112729 0,-0.43025 4.06053,-3.974182 9.02343,-7.875399 l 9.02344,-7.093128 h 13.35676 13.35673 l -3.31303,2.712525 -3.31302,2.712524 -7.75259,-0.346493 c -7.64015,-0.341473 -7.75257,-0.324651 -7.75257,1.160628 0,1.487078 0.10857,1.503002 8.17163,1.196897 l 8.17163,-0.310224 4.63395,-3.562929 c 2.54867,-1.959609 5.09444,-3.562928 5.65729,-3.562928 0.56284,0 1.02333,-0.297393 1.02333,-0.660877 0,-0.369648 -2.29423,-0.660859 -5.20648,-0.660859 -4.92318,0 -5.39068,-0.141063 -8.59072,-2.592237 l -3.38418,-2.592237 -13.82892,-0.200167 c -13.24032,-0.191643 -13.82894,-0.145371 -13.82894,1.088955 0,1.233109 0.5827,1.280205 13.40988,1.083485 l 13.40986,-0.205655 2.03187,1.708918 2.03185,1.708938 h -10.01817 -10.01819 l -5.41558,4.308593 -5.41558,4.308612 -17.17872,-0.178155 -17.17873,-0.178156 -1.12761,-1.8562 c -0.80647,-1.3276 -1.64246,-1.798109 -2.93547,-1.652194 -2.5725,0.290311 -2.83055,2.373974 -0.38485,3.107181 1.08965,0.326673 2.48332,1.071027 3.09702,1.654105 0.95252,0.905012 3.45028,1.060162 17.06731,1.060162 h 15.9515 l -1.59659,1.397588 c -0.87815,0.768688 -2.47136,1.661335 -3.54048,1.9837 -1.35915,0.409793 -1.86338,1.017487 -1.67624,2.020231 0.28219,1.512031 1.25371,1.975627 2.99151,1.427506 z M 22.691688,70.774152 c 0.32318,-0.412342 8.47141,-0.660877 21.66599,-0.660877 h 21.148 l 3.7015,-2.973931 3.70145,-2.973931 h 18.49108 18.491072 l 7.5081,-5.94786 7.5081,-5.947862 h 10.04314 10.04317 l 3.59372,2.781089 c 1.97654,1.529603 3.59373,3.165255 3.59373,3.634808 0,0.470041 0.94163,0.853701 2.09528,0.853701 1.54508,0 2.0953,-0.351363 2.0953,-1.33809 0,-0.774553 -0.79422,-1.583349 -1.88576,-1.92042 -1.03719,-0.320266 -3.37663,-1.799869 -5.19881,-3.288014 l -3.31303,-2.705707 h -9.2345 -9.23453 l 5.39935,-4.295666 5.39934,-4.295686 h 35.85369 c 31.31122,0 35.8537,-0.125514 35.8537,-0.991298 0,-0.845027 -2.26175,-0.991316 -15.32712,-0.991316 H 179.3565 l -4.12755,-3.304369 -4.12758,-3.30437 h -32.33843 -32.33845 l -3.10351,-2.506145 c -1.70691,-1.378367 -3.10351,-3.014039 -3.10351,-3.634808 0,-0.763312 -0.678202,-1.128651 -2.095282,-1.128651 -1.67624,0 -2.09528,0.330439 -2.09528,1.652175 0,0.909676 0.48656,1.652195 1.08266,1.652195 0.59549,0 2.74833,1.338259 4.784152,2.973937 l 3.70146,2.97393 h 9.66663 9.6666 l -6.48075,5.110216 -6.48075,5.110214 -5.68622,-4.449337 -5.68621,-4.449356 h -8.824322 -8.8243 l -2.84317,-2.313053 c -2.33424,-1.899006 -3.45509,-2.313053 -6.26173,-2.313053 -3.14045,0 -3.92653,-0.403237 -9.66249,-4.95657 l -6.24392,-4.956544 h -5.51065 c -3.18666,0 -5.9373,-0.336434 -6.52234,-0.797764 -0.79024,-0.623111 -1.31077,-0.561983 -2.37755,0.279185 -0.75117,0.592332 -1.15284,1.514541 -0.89258,2.04936 0.38229,0.785493 1.81383,0.910388 7.44814,0.649826 l 6.97491,-0.322571 5.0287,4.069516 5.0287,4.069506 -19.27667,-0.156985 c -18.14747,-0.147807 -19.27669,-0.08655 -19.27669,1.044425 0,1.136444 1.29342,1.194013 23.91769,1.064302 23.38429,-0.134132 23.95342,-0.106029 25.51908,1.258136 l 1.60134,1.395266 -28.87151,-0.09947 c -26.77763,-0.09235 -28.89272,-0.01686 -29.16353,1.045868 -0.37931,1.487864 1.47712,2.371989 3.33467,1.588088 0.83479,-0.352281 17.14607,-0.614756 38.20369,-0.614756 h 36.74691 l 5.214842,4.148909 5.21485,4.148891 -5.2616,4.112023 c -5.171492,4.041586 -5.340652,4.112024 -9.874962,4.112024 -4.52685,0 -4.7066,-0.07437 -9.58956,-3.965247 l -4.97622,-3.965247 h -31.48712 -31.48712 l -3.83163,-3.139141 c -2.10739,-1.726528 -4.0614096,-3.659592 -4.3422996,-4.295685 -0.28086,-0.636093 -1.2768,-1.156527 -2.21322,-1.156527 -1.25726,0 -1.70251,0.432087 -1.70251,1.652194 0,0.908702 0.40514,1.652175 0.90035,1.652175 0.49518,0 3.07504,1.635672 5.7330496,3.634808 l 4.83272,3.634808 h 31.2667 31.26666 l 4.03205,2.973931 4.03208,2.973931 h -12.36821 c -7.38971,0 -12.71665,-0.274745 -13.23381,-0.682553 -1.37753,-1.08622 -3.78155,0.0093 -3.49504,1.592753 0.17605,0.972977 0.83172,1.38839 2.13962,1.355645 1.03716,-0.02604 10.44087,-0.100414 20.89708,-0.165229 L 100.5249,56.895873 114.44074,45.991467 128.35657,35.087043 h 20.96695 20.96695 l 2.84317,2.313071 2.84317,2.313054 H 156.736 137.49519 L 123.25644,50.96519 109.01771,62.217213 54.959188,62.153323 c -37.95488,-0.04478 -54.03355956,0.14687 -53.97470956,0.6437 0.0461,0.389149 0.14016996,0.930582 0.20905996,1.20319 0.0689,0.272627 15.4936196,0.405466 34.2771696,0.295201 l 34.15194,-0.200447 -2.88648,2.34829 -2.88649,2.348291 h -20.20183 c -12.7779,0 -20.51993,-0.250822 -21.06742,-0.682533 -1.22111,-0.962861 -3.66024,-0.06763 -3.66024,1.34341 0,0.649188 0.59657,1.360853 1.32572,1.581476 1.73859,0.526071 1.8382,0.515487 2.4458,-0.25972 z M 189.68644,28.644012 c 17.29103,-0.161106 20.32433,-0.335477 20.32433,-1.168834 0,-0.538754 -0.68032,-0.979571 -1.51182,-0.979571 -0.83149,0 -2.79123,-1.040866 -4.35498,-2.313052 l -2.84318,-2.313052 h -11.82066 c -7.01309,0 -12.1727,-0.277593 -12.68624,-0.682534 -1.22112,-0.962879 -3.66025,-0.06763 -3.66025,1.343411 0,1.411038 2.43913,2.306271 3.66025,1.343411 0.50744,-0.400146 5.41724,-0.682534 11.86644,-0.682534 10.74845,0 11.04749,0.03915 13.03273,1.7086 l 2.03184,1.708601 -18.63957,-0.221636 c -11.92301,-0.141811 -18.74915,0.01686 -18.94368,0.439225 -0.54878,1.192513 0.3997,2.316031 1.82361,2.16015 0.76828,-0.08411 10.54281,-0.238083 21.72118,-0.342185 z m -38.71076,-2.627156 6.75705,-0.231564 6.21276,-4.931815 c 4.72362,-3.749701 5.80974,-4.931836 4.5313,-4.931836 -0.95002,0 -3.85762,1.747136 -6.68395,4.016295 l -5.00248,4.016314 -7.96209,-0.216277 c -7.4948,-0.203594 -7.96211,-0.138627 -7.96211,1.105459 0,1.491574 0.18816,1.513399 10.10952,1.173424 z m -33.45835,-0.628918 c 0.29284,-0.662957 2.82659,-3.064076 5.63054,-5.335839 4.00948,-3.24847 4.73787,-4.130458 3.41105,-4.130458 -0.92788,0 -3.36848,1.365647 -5.42354,3.034758 -2.05508,1.669111 -4.61126,3.30525 -5.68038,3.635857 -1.37483,0.425155 -1.86554,1.034123 -1.67624,2.080272 0.33422,1.847058 3.01233,2.35953 3.73857,0.71541 z"
       id="path179" /></g></svg>
