<!DOCTYPE svg PUBLIC "-//W3C//DTD SVG 1.1//EN" "http://www.w3.org/Graphics/SVG/1.1/DTD/svg11.dtd">
<!-- Uploaded to: SVG Repo, www.svgrepo.com, Transformed by: SVG Repo Mixer Tools -->
<svg fill="#ff0000" height="800px" width="800px" version="1.1" id="Layer_1" xmlns="http://www.w3.org/2000/svg" xmlns:xlink="http://www.w3.org/1999/xlink" viewBox="0 0 512.001 512.001" xml:space="preserve" stroke="#ff0000" stroke-width="5.12001">
<g id="SVGRepo_bgCarrier" stroke-width="0"/>
<g id="SVGRepo_tracerCarrier" stroke-linecap="round" stroke-linejoin="round"/>
<g id="SVGRepo_iconCarrier"> <g> <g> <path d="M509.125,159.42c-4.988-7.033-14.732-8.695-21.766-3.708L402.017,216.2h-0.208c-9.24,12.007-12.19,15.838-20.94,27.206 c-0.364,0.474-0.925,0.755-1.523,0.764c-0.598,0.009-1.169-0.254-1.547-0.716l-3.299-4.023l-0.042-0.051v0.051V433.96h47.567 c4.399,0,7.846-3.789,7.435-8.166l-16.823-178.848l92.779-65.76C512.45,176.2,514.111,166.455,509.125,159.42z"/> </g> </g> <g> <g> <path d="M457.057,89.413l-29.528-48.651c-0.558-0.92-1.515-1.523-2.585-1.63l-56.625-5.698c-1.227-0.124-2.426,0.422-3.139,1.428 c-0.713,1.007-0.829,2.317-0.306,3.433l10.389,22.153l-10.711,16.979c-1.407,2.234-0.739,5.187,1.494,6.595l46.334,29.229 c2.234,1.409,5.185,0.741,6.594-1.493l10.711-16.979l12.648-0.085v43.411c0,2.44,1.979,4.418,4.419,4.418s4.419-1.978,4.419-4.418 v-43.47l2.982-0.02c1.234-0.009,2.366-0.678,2.968-1.755C457.721,91.783,457.697,90.467,457.057,89.413z"/> </g> </g> <g> <g> <path d="M372.59,445.224v14.009h0.001c0,10.688,8.664,19.352,19.352,19.352c10.688,0,19.352-8.664,19.352-19.352v-14.009H372.59z"/> </g> </g> <g> <g> <path d="M325.53,445.224v14.009h0.001c0,10.688,8.664,19.352,19.352,19.352c10.688,0,19.352-8.664,19.352-19.352v-14.009H325.53z"/> </g> </g> <g> <g> <path d="M362.97,239.431v-0.051l-0.042,0.051l-3.299,4.023c-0.379,0.463-0.949,0.726-1.546,0.717 c-0.598-0.01-1.159-0.292-1.524-0.765c-7.257-9.429-8.688-11.289-19.975-25.955l-87.108-61.74 c-7.036-4.987-16.781-3.326-21.766,3.708c-4.987,7.035-3.325,16.781,3.709,21.766l93.109,65.994l-16.801,178.614 c-0.412,4.38,3.038,8.166,7.435,8.166h47.811V239.431H362.97z"/> </g> </g> <g> <g> <circle cx="368.422" cy="172.569" r="33.423"/> </g> </g> <g> <g> <polygon points="355.855,216.2 368.715,231.419 381.574,216.2 "/> </g> </g> <g> <g> <path d="M155.437,78.668c-0.289-1.042-1.117-1.849-2.168-2.113l-48.455-12.123c-0.916-0.229-1.886-0.015-2.62,0.579l-38.846,31.4 c-0.841,0.68-1.252,1.761-1.076,2.828c0.177,1.068,0.913,1.959,1.928,2.333l2.007,0.737v44.562c0,2.298,1.863,4.161,4.162,4.161 c2.298,0,4.162-1.863,4.162-4.161v-41.504l9.828,3.611l3.673,16.634c0.569,2.579,3.121,4.207,5.698,3.638l45.81-10.115 c2.578-0.569,4.207-3.121,3.638-5.699l-3.673-16.635l15.164-15.207C155.434,80.829,155.727,79.71,155.437,78.668z"/> </g> </g> <g> <g> <path d="M209.475,146.321c-7.198-3.066-15.519,0.286-18.584,7.485l-39.534,92.864h5.251c0.746,0,1.429,0.425,1.759,1.095 c0.33,0.67,0.249,1.468-0.207,2.06c-12.239,15.903-12.371,16.074-16.432,21.351c-0.364,0.474-0.925,0.755-1.523,0.764 c-0.598,0.009-1.169-0.254-1.547-0.716l-2.849-3.475l-0.039-0.047v0.047v170.343h43.138c4.001,0,7.131-3.454,6.744-7.432 l-15.26-156.75c0.808-1.323-2.231,5.627,46.569-109.005C220.024,157.706,216.674,149.386,209.475,146.321z"/> </g> </g> <g> <g> <path d="M134.077,448.313v12.712h-0.001c0,9.698,7.861,17.561,17.561,17.561s17.561-7.862,17.561-17.561v-12.712H134.077z"/> </g> </g> <g> <g> <path d="M91.373,448.313v12.712c0,9.698,7.861,17.561,17.561,17.561c9.699,0,17.561-7.862,17.561-17.561v-12.712H91.373z"/> </g> </g> <g> <g> <path d="M125.308,267.75l-2.849,3.475c-0.379,0.463-0.949,0.726-1.546,0.717c-0.598-0.01-1.159-0.292-1.524-0.765 c-6.007-7.804-2.599-3.378-17.986-23.371L22.36,191.783c-6.383-4.523-15.226-3.017-19.751,3.366 c-4.524,6.384-3.017,15.226,3.366,19.751l84.445,59.853L75.244,430.66c-0.388,3.982,2.745,7.432,6.744,7.432h43.358V267.75v-0.047 L125.308,267.75z"/> </g> </g> <g> <g> <circle cx="130.29" cy="207.082" r="30.324"/> </g> </g> <g> <g> <polygon points="118.89,246.67 130.558,260.481 142.227,246.67 "/> </g> </g> </g>
</svg>