<?xml version="1.0" encoding="UTF-8" standalone="no"?>
<!-- Uploaded to: SVG Repo, www.svgrepo.com, Transformed by: SVG Repo Mixer Tools -->

<svg
   fill="#333333"
   width="800px"
   height="800px"
   viewBox="0 0 1920 1920"
   stroke="#333333"
   version="1.1"
   id="svg3392"
   sodipodi:docname="marker-laboratorio.svg"
   xml:space="preserve"
   inkscape:version="1.2.2 (732a01da63, 2022-12-09)"
   xmlns:inkscape="http://www.inkscape.org/namespaces/inkscape"
   xmlns:sodipodi="http://sodipodi.sourceforge.net/DTD/sodipodi-0.dtd"
   xmlns="http://www.w3.org/2000/svg"
   xmlns:svg="http://www.w3.org/2000/svg"><defs
     id="defs3396" /><sodipodi:namedview
     id="namedview3394"
     pagecolor="#ffffff"
     bordercolor="#666666"
     borderopacity="1.0"
     inkscape:showpageshadow="2"
     inkscape:pageopacity="0.0"
     inkscape:pagecheckerboard="0"
     inkscape:deskcolor="#d1d1d1"
     showgrid="false"
     inkscape:zoom="1.005"
     inkscape:cx="323.8806"
     inkscape:cy="369.65174"
     inkscape:window-width="1920"
     inkscape:window-height="991"
     inkscape:window-x="-9"
     inkscape:window-y="-9"
     inkscape:window-maximized="1"
     inkscape:current-layer="svg3392" /><g
     id="SVGRepo_bgCarrier"
     stroke-width="0" /><g
     id="SVGRepo_tracerCarrier"
     stroke-linecap="round"
     stroke-linejoin="round" /><g
     id="SVGRepo_iconCarrier"><path
       d="M956.952 0c-362.4 0-657 294.6-657 656.88 0 180.6 80.28 347.88 245.4 511.56 239.76 237.96 351.6 457.68 351.6 691.56v60h120v-60c0-232.8 110.28-446.16 357.6-691.44 165.12-163.8 245.4-331.08 245.4-511.68 0-362.28-294.6-656.88-663-656.88"
       fill-rule="evenodd"
       id="path3389" /></g><g
     style="fill:none"
     id="g5528"
     transform="matrix(40.058472,0,0,41.192663,475.71625,194.64326)"><g
       id="SVGRepo_bgCarrier-2"
       stroke-width="0" /><g
       id="SVGRepo_tracerCarrier-9"
       stroke-linecap="round"
       stroke-linejoin="round" /><g
       id="SVGRepo_iconCarrier-7"><path
         fill-rule="evenodd"
         clip-rule="evenodd"
         d="M 2,6 C 2,4.34315 3.34315,3 5,3 h 14 c 1.6569,0 3,1.34315 3,3 v 9 c 0,1.6569 -1.3431,3 -3,3 h -6 v 1 h 2 c 0.5523,0 1,0.4477 1,1 0,0.5523 -0.4477,1 -1,1 H 9 C 8.44772,21 8,20.5523 8,20 8,19.4477 8.44772,19 9,19 h 2 V 18 H 5 C 3.34315,18 2,16.6569 2,15 Z M 5,5 C 4.44772,5 4,5.44772 4,6 v 9 c 0,0.5523 0.44772,1 1,1 h 14 c 0.5523,0 1,-0.4477 1,-1 V 6 C 20,5.44772 19.5523,5 19,5 Z"
         fill="#f0f0f0"
         id="path5515" /></g></g></svg>
