<?xml version="1.0" encoding="UTF-8" standalone="no"?>
<!-- Uploaded to: SVG Repo, www.svgrepo.com, Transformed by: SVG Repo Mixer Tools -->

<svg
   fill="#333333"
   width="800px"
   height="800px"
   viewBox="0 0 1920 1920"
   stroke="#333333"
   version="1.1"
   id="svg3392"
   sodipodi:docname="marker-aula.svg"
   xml:space="preserve"
   inkscape:version="1.2.2 (732a01da63, 2022-12-09)"
   xmlns:inkscape="http://www.inkscape.org/namespaces/inkscape"
   xmlns:sodipodi="http://sodipodi.sourceforge.net/DTD/sodipodi-0.dtd"
   xmlns="http://www.w3.org/2000/svg"
   xmlns:svg="http://www.w3.org/2000/svg"><defs
     id="defs3396"><style
       id="style5564">.cls-1{fill:none;stroke:#f0f0f0;stroke-miterlimit:10;stroke-width:1.91px;}</style></defs><sodipodi:namedview
     id="namedview3394"
     pagecolor="#ffffff"
     bordercolor="#666666"
     borderopacity="1.0"
     inkscape:showpageshadow="2"
     inkscape:pageopacity="0.0"
     inkscape:pagecheckerboard="0"
     inkscape:deskcolor="#d1d1d1"
     showgrid="false"
     inkscape:zoom="1.005"
     inkscape:cx="323.8806"
     inkscape:cy="369.65174"
     inkscape:window-width="1920"
     inkscape:window-height="991"
     inkscape:window-x="-9"
     inkscape:window-y="-9"
     inkscape:window-maximized="1"
     inkscape:current-layer="svg3392" /><g
     id="SVGRepo_bgCarrier"
     stroke-width="0" /><g
     id="SVGRepo_tracerCarrier"
     stroke-linecap="round"
     stroke-linejoin="round" /><g
     id="SVGRepo_iconCarrier"><path
       d="M956.952 0c-362.4 0-657 294.6-657 656.88 0 180.6 80.28 347.88 245.4 511.56 239.76 237.96 351.6 457.68 351.6 691.56v60h120v-60c0-232.8 110.28-446.16 357.6-691.44 165.12-163.8 245.4-331.08 245.4-511.68 0-362.28-294.6-656.88-663-656.88"
       fill-rule="evenodd"
       id="path3389" /></g><g
     style="fill:#f0f0f0;stroke:#f0f0f0"
     id="g5657"
     transform="matrix(1.52015,0,0,1.5868998,572.03563,265.99243)"><g
       id="SVGRepo_bgCarrier-4"
       stroke-width="0" /><g
       id="SVGRepo_tracerCarrier-8"
       stroke-linecap="round"
       stroke-linejoin="round" /><g
       id="SVGRepo_iconCarrier-8"> <style
   type="text/css"
   id="style5633"> .st0{fill:#f0f0f0;} </style> <g
   id="g5641"> <path
   class="st0"
   d="m 81.44,116.972 c 23.206,0 42.007,-18.817 42.007,-42.008 0,-23.215 -18.801,-42.016 -42.007,-42.016 -23.216,0 -42.016,18.801 -42.016,42.016 0,23.191 18.8,42.008 42.016,42.008 z"
   id="path5635" /> <path
   class="st0"
   d="m 224.166,245.037 c 0,-0.856 -0.142,-1.673 -0.251,-2.498 l 62.748,-45.541 c 3.942,-2.867 4.83,-8.411 1.963,-12.362 -1.664,-2.285 -4.342,-3.652 -7.17,-3.652 -1.877,0 -3.667,0.589 -5.191,1.689 l -62.874,45.636 c -2.341,-1.068 -4.909,-1.704 -7.65,-1.704 h -34.178 l -8.294,-47.222 c -4.555,-23.811 -14.112,-42.51 -34.468,-42.51 h -86.3 C 22.146,136.873 0,159.019 0,179.383 v 141.203 c 0,10.178 8.246,18.432 18.424,18.432 5.011,0 0,0 12.864,0 l 7.005,120.424 c 0,10.83 8.788,19.61 19.618,19.61 8.12,0 28.398,0 39.227,0 10.83,0 19.61,-8.78 19.61,-19.61 l 9.204,-238.53 h 0.463 l 5.27,23.269 c 1.744,11.097 11.293,19.28 22.524,19.28 h 51.534 c 10.177,0 18.423,-8.246 18.423,-18.424 z M 68.026,218.861 v -67.123 h 24.126 v 67.123 l -12.817,15.118 z"
   id="path5637" /> <polygon
   class="st0"
   points="214.452,302.131 214.452,273.113 190.326,273.113 190.326,326.256 512,326.256 512,47.47 190.326,47.47 190.326,200.869 214.452,200.869 214.452,71.595 487.874,71.595 487.874,302.131 "
   id="polygon5639" /> </g> </g></g></svg>
