<?xml version="1.0" encoding="UTF-8" standalone="no"?>
<!-- Uploaded to: SVG Repo, www.svgrepo.com, Transformed by: SVG Repo Mixer Tools -->

<svg
   fill="#333333"
   width="800px"
   height="800px"
   viewBox="0 0 1920 1920"
   stroke="#333333"
   version="1.1"
   id="svg3392"
   sodipodi:docname="marker-aula_studio.svg"
   xml:space="preserve"
   inkscape:version="1.2.2 (732a01da63, 2022-12-09)"
   xmlns:inkscape="http://www.inkscape.org/namespaces/inkscape"
   xmlns:sodipodi="http://sodipodi.sourceforge.net/DTD/sodipodi-0.dtd"
   xmlns="http://www.w3.org/2000/svg"
   xmlns:svg="http://www.w3.org/2000/svg"><defs
     id="defs3396"><style
       id="style5564">.cls-1{fill:none;stroke:#f0f0f0;stroke-miterlimit:10;stroke-width:1.91px;}</style></defs><sodipodi:namedview
     id="namedview3394"
     pagecolor="#ffffff"
     bordercolor="#666666"
     borderopacity="1.0"
     inkscape:showpageshadow="2"
     inkscape:pageopacity="0.0"
     inkscape:pagecheckerboard="0"
     inkscape:deskcolor="#d1d1d1"
     showgrid="false"
     inkscape:zoom="1.005"
     inkscape:cx="323.8806"
     inkscape:cy="369.65174"
     inkscape:window-width="1920"
     inkscape:window-height="991"
     inkscape:window-x="-9"
     inkscape:window-y="-9"
     inkscape:window-maximized="1"
     inkscape:current-layer="svg3392" /><g
     id="SVGRepo_bgCarrier"
     stroke-width="0" /><g
     id="SVGRepo_tracerCarrier"
     stroke-linecap="round"
     stroke-linejoin="round" /><g
     id="SVGRepo_iconCarrier"><path
       d="M956.952 0c-362.4 0-657 294.6-657 656.88 0 180.6 80.28 347.88 245.4 511.56 239.76 237.96 351.6 457.68 351.6 691.56v60h120v-60c0-232.8 110.28-446.16 357.6-691.44 165.12-163.8 245.4-331.08 245.4-511.68 0-362.28-294.6-656.88-663-656.88"
       fill-rule="evenodd"
       id="path3389" /></g><g
     style="fill:#f0f0f0;stroke:#f0f0f0"
     id="g5710"
     transform="matrix(1.6118562,0,0,1.58069,549.75528,287.88071)"><g
       id="SVGRepo_bgCarrier-5"
       stroke-width="0" /><g
       id="SVGRepo_tracerCarrier-7"
       stroke-linecap="round"
       stroke-linejoin="round" /><g
       id="SVGRepo_iconCarrier-1"> <style
   type="text/css"
   id="style5692"> .st0{fill:#f0f0f0;} </style> <g
   id="g5696"> <path
   class="st0"
   d="m 462.277,306.305 v -84.362 h -9.334 c -39.53,0.008 -74.723,6.847 -103.747,15.651 -5.69,-11.507 -12.261,-23.387 -17.891,-33.162 24.955,-21.296 40.8,-52.956 40.8,-88.327 C 372.104,51.978 320.119,0 256,0 191.88,0 139.895,51.978 139.895,116.105 c 0,35.372 15.845,67.032 40.8,88.327 -5.63,9.775 -12.201,21.655 -17.891,33.162 C 133.78,228.79 98.587,221.95 59.064,221.943 H 49.73 v 84.362 c -28.174,0.553 -38.941,23.782 -38.941,52.374 0,28.592 10.767,51.821 38.941,52.366 v 67.152 l 9.005,0.314 0.262,0.008 c 2.8,0.112 28.479,1.21 63.261,5.868 34.774,4.645 78.672,12.896 117.657,27.053 l 1.546,0.56 h 29.076 l 1.546,-0.56 c 40.248,-14.62 85.721,-22.931 121.003,-27.494 17.637,-2.285 32.735,-3.651 43.399,-4.436 5.331,-0.395 9.542,-0.649 12.425,-0.799 1.434,-0.074 2.538,-0.127 3.27,-0.157 0.373,-0.014 0.642,-0.03 0.821,-0.036 l 0.269,-0.008 9.005,-0.314 v -67.152 c 28.166,-0.545 38.933,-23.774 38.933,-52.366 0,-28.592 -10.766,-51.82 -38.931,-52.373 z M 230.746,488.628 C 192.851,476.576 153.052,469.565 121.317,465.443 97.915,462.404 78.919,460.963 68.39,460.328 v -52.314 c 20.251,-7.243 34.745,-26.59 34.745,-49.334 0,-22.745 -14.494,-42.092 -34.745,-49.342 v -68.592 c 48.618,1.396 90.06,13.493 119.809,25.604 15.808,6.436 28.307,12.866 36.797,17.66 2.196,1.232 4.107,2.352 5.75,3.345 z m 38.067,4.189 c -0.5,0.171 -1,0.343 -1.5,0.522 h -22.625 c -0.501,-0.179 -1.001,-0.351 -1.501,-0.522 V 293.47 h 25.626 z m 174.796,-183.48 c -20.25,7.25 -34.737,26.597 -34.737,49.342 0,22.744 14.486,42.092 34.737,49.334 v 52.314 c -10.529,0.635 -29.524,2.076 -52.926,5.115 -31.735,4.122 -71.527,11.133 -109.429,23.185 V 287.354 c 8.116,-4.876 22.998,-13.097 43.294,-21.304 29.689,-12.014 70.855,-23.924 119.062,-25.306 v 68.593 z"
   id="path5694" /> </g> </g></g></svg>
