<?xml version="1.0" encoding="UTF-8" standalone="no"?>
<!-- Uploaded to: SVG Repo, www.svgrepo.com, Transformed by: SVG Repo Mixer Tools -->

<svg
   fill="#333333"
   width="800px"
   height="800px"
   viewBox="0 0 1920 1920"
   stroke="#333333"
   version="1.1"
   id="svg3392"
   sodipodi:docname="marker-mensa.svg"
   xml:space="preserve"
   inkscape:version="1.2.2 (732a01da63, 2022-12-09)"
   xmlns:inkscape="http://www.inkscape.org/namespaces/inkscape"
   xmlns:sodipodi="http://sodipodi.sourceforge.net/DTD/sodipodi-0.dtd"
   xmlns="http://www.w3.org/2000/svg"
   xmlns:svg="http://www.w3.org/2000/svg"><defs
     id="defs3396" /><sodipodi:namedview
     id="namedview3394"
     pagecolor="#ffffff"
     bordercolor="#666666"
     borderopacity="1.0"
     inkscape:showpageshadow="2"
     inkscape:pageopacity="0.0"
     inkscape:pagecheckerboard="0"
     inkscape:deskcolor="#d1d1d1"
     showgrid="false"
     inkscape:zoom="1.005"
     inkscape:cx="323.8806"
     inkscape:cy="369.65174"
     inkscape:window-width="1920"
     inkscape:window-height="991"
     inkscape:window-x="-9"
     inkscape:window-y="-9"
     inkscape:window-maximized="1"
     inkscape:current-layer="svg3392" /><g
     id="SVGRepo_bgCarrier"
     stroke-width="0" /><g
     id="SVGRepo_tracerCarrier"
     stroke-linecap="round"
     stroke-linejoin="round" /><g
     id="SVGRepo_iconCarrier"><path
       d="M956.952 0c-362.4 0-657 294.6-657 656.88 0 180.6 80.28 347.88 245.4 511.56 239.76 237.96 351.6 457.68 351.6 691.56v60h120v-60c0-232.8 110.28-446.16 357.6-691.44 165.12-163.8 245.4-331.08 245.4-511.68 0-362.28-294.6-656.88-663-656.88"
       fill-rule="evenodd"
       id="path3389" /></g><g
     style="fill:#f0f0f0;stroke:#f0f0f0"
     id="g5416"
     transform="matrix(0.85035278,0,0,0.87388386,511.05282,232.86042)"><g
       id="SVGRepo_bgCarrier-0"
       stroke-width="0" /><g
       id="SVGRepo_tracerCarrier-5"
       stroke-linecap="round"
       stroke-linejoin="round" /><g
       id="SVGRepo_iconCarrier-2"><path
         d="M 244.976,431.099 H 194.8 c -28.278,0 -51.2,-22.922 -51.2,-51.2 v -139.09 c 0,-28.278 22.922,-51.2 51.2,-51.2 h 248.095 c 28.278,0 51.2,22.922 51.2,51.2 v 139.09 c 0,28.278 -22.922,51.2 -51.2,51.2 h -44.503 v 541.88 c 0,28.278 -22.922,51.2 -51.2,51.2 h -51.016 c -28.278,0 -51.2,-22.922 -51.2,-51.2 z M 442.894,230.569 H 194.799 a 10.238,10.238 0 0 0 -10.24,10.24 v 139.09 c 0,5.657 4.583,10.24 10.24,10.24 h 70.656 c 11.311,0 20.48,9.169 20.48,20.48 v 562.36 c 0,5.657 4.583,10.24 10.24,10.24 h 51.016 c 5.657,0 10.24,-4.583 10.24,-10.24 v -562.36 c 0,-11.311 9.169,-20.48 20.48,-20.48 h 64.983 c 5.657,0 10.24,-4.583 10.24,-10.24 v -139.09 c 0,-5.657 -4.583,-10.24 -10.24,-10.24 z"
         id="path5400" /><path
         d="m 143.36,21.503 v 244.736 c 0,11.311 9.169,20.48 20.48,20.48 11.311,0 20.48,-9.169 20.48,-20.48 V 21.503 c 0,-11.311 -9.169,-20.48 -20.48,-20.48 -11.311,0 -20.48,9.169 -20.48,20.48 z m 103.578,0 v 179.886 c 0,11.311 9.169,20.48 20.48,20.48 11.311,0 20.48,-9.169 20.48,-20.48 V 21.503 c 0,-11.311 -9.169,-20.48 -20.48,-20.48 -11.311,0 -20.48,9.169 -20.48,20.48 z m 103.424,0 v 179.886 c 0,11.311 9.169,20.48 20.48,20.48 11.311,0 20.48,-9.169 20.48,-20.48 V 21.503 c 0,-11.311 -9.169,-20.48 -20.48,-20.48 -11.311,0 -20.48,9.169 -20.48,20.48 z m 102.604,0 v 234.496 c 0,11.311 9.169,20.48 20.48,20.48 11.311,0 20.48,-9.169 20.48,-20.48 V 21.503 c 0,-11.311 -9.169,-20.48 -20.48,-20.48 -11.311,0 -20.48,9.169 -20.48,20.48 z m 210.35,508.989 c -28.278,0 -51.2,-22.922 -51.2,-51.2 V 215.039 c 0,-118.762 96.274,-215.04 215.04,-215.04 28.278,0 51.2,22.922 51.2,51.2 v 213.504 h -20.48 v -20.48 l 0.492,40.96 -0.512,-20.48 h 20.48 v 708.803 c 0,28.278 -22.922,51.2 -51.2,51.2 h -72.448 c -28.278,0 -51.2,-22.922 -51.2,-51.2 V 530.493 H 663.316 Z M 837.396,51.199 c 0,-5.657 -4.583,-10.24 -10.24,-10.24 -96.144,0 -174.08,77.939 -174.08,174.08 v 264.253 c 0,5.657 4.583,10.24 10.24,10.24 h 60.652 c 11.311,0 20.48,9.169 20.48,20.48 v 463.493 c 0,5.657 4.583,10.24 10.24,10.24 h 72.448 c 5.657,0 10.24,-4.583 10.24,-10.24 V 264.702 l 0.02,-213.504 z m 20.46,193.024 h 0.512 c 27.307,0 27.307,40.96 0,40.96 h -0.492 c -11.311,0 -20.48,-9.169 -20.48,-20.48 v -0.924 c 0.483,-10.882 9.458,-19.556 20.46,-19.556 z"
         id="path5402" /></g></g></svg>
