<?xml version="1.0" encoding="UTF-8" standalone="no"?>
<!-- Uploaded to: SVG Repo, www.svgrepo.com, Transformed by: SVG Repo Mixer Tools -->

<svg
   fill="#333333"
   width="800px"
   height="800px"
   viewBox="0 0 1920 1920"
   stroke="#333333"
   version="1.1"
   id="svg3392"
   sodipodi:docname="marker-biblioteca.svg"
   xml:space="preserve"
   inkscape:version="1.2.2 (732a01da63, 2022-12-09)"
   xmlns:inkscape="http://www.inkscape.org/namespaces/inkscape"
   xmlns:sodipodi="http://sodipodi.sourceforge.net/DTD/sodipodi-0.dtd"
   xmlns="http://www.w3.org/2000/svg"
   xmlns:svg="http://www.w3.org/2000/svg"><defs
     id="defs3396"><style
       id="style5564">.cls-1{fill:none;stroke:#f0f0f0;stroke-miterlimit:10;stroke-width:1.91px;}</style></defs><sodipodi:namedview
     id="namedview3394"
     pagecolor="#ffffff"
     bordercolor="#666666"
     borderopacity="1.0"
     inkscape:showpageshadow="2"
     inkscape:pageopacity="0.0"
     inkscape:pagecheckerboard="0"
     inkscape:deskcolor="#d1d1d1"
     showgrid="false"
     inkscape:zoom="1.005"
     inkscape:cx="323.8806"
     inkscape:cy="369.65174"
     inkscape:window-width="1920"
     inkscape:window-height="991"
     inkscape:window-x="-9"
     inkscape:window-y="-9"
     inkscape:window-maximized="1"
     inkscape:current-layer="svg3392" /><g
     id="SVGRepo_bgCarrier"
     stroke-width="0" /><g
     id="SVGRepo_tracerCarrier"
     stroke-linecap="round"
     stroke-linejoin="round" /><g
     id="SVGRepo_iconCarrier"><path
       d="M956.952 0c-362.4 0-657 294.6-657 656.88 0 180.6 80.28 347.88 245.4 511.56 239.76 237.96 351.6 457.68 351.6 691.56v60h120v-60c0-232.8 110.28-446.16 357.6-691.44 165.12-163.8 245.4-331.08 245.4-511.68 0-362.28-294.6-656.88-663-656.88"
       fill-rule="evenodd"
       id="path3389" /></g><g
     style="fill:#f0f0f0;stroke:#f0f0f0"
     id="g5593"
     transform="matrix(33.919535,0,0,36.59696,556.54767,253.37378)"><g
       id="SVGRepo_bgCarrier-1"
       stroke-width="0" /><g
       id="SVGRepo_tracerCarrier-0"
       stroke-linecap="round"
       stroke-linejoin="round" /><g
       id="SVGRepo_iconCarrier-6"><defs
         id="defs5566"><style
           id="style5585">.cls-1{fill:none;stroke:#f0f0f0;stroke-miterlimit:10;stroke-width:1.91px;}</style></defs><rect
         class="cls-1"
         x="7.23"
         y="5.3200002"
         width="9.5500002"
         height="3.8199999"
         id="rect5568" /><path
         class="cls-1"
         d="M 20.59,22.5 H 5.32 A 1.91,1.91 0 0 1 4,19.24 1.89,1.89 0 0 1 5.35,18.68 h 15.24"
         id="path5570" /><line
         class="cls-1"
         x1="19.639999"
         y1="18.68"
         x2="19.639999"
         y2="22.5"
         id="line5572" /><path
         class="cls-1"
         d="M 20.59,1.5 V 18.68 H 5.32 A 1.91,1.91 0 0 0 3.41,20.59 V 3.41 A 1.92,1.92 0 0 1 5.32,1.5 Z"
         id="path5574" /></g></g></svg>
